<?xml version="1.0" encoding="utf-8"?>
<!-- Generator: Adobe Illustrator 27.5.0, SVG Export Plug-In . SVG Version: 6.00 Build 0)  -->
<svg version="1.1" xmlns="http://www.w3.org/2000/svg" xmlns:xlink="http://www.w3.org/1999/xlink" x="0px" y="0px"
	 viewBox="0 0 2400 1700" style="enable-background:new 0 0 2400 1700;" xml:space="preserve">
<g id="BACKGROUND">
	<g>
		<g>
			<rect style="fill:#FFFFFF;" width="2400" height="1700"/>
		</g>
	</g>
</g>
<g id="OBJECTS">
	<g>
		<g>
			<g style="opacity:0.8071;">
				<path d="M1080.118,413.104c-0.274,0-0.538-0.148-0.672-0.408l-110.824-214.6c-0.19-0.37-0.044-0.822,0.328-1.012
					c0.368-0.192,0.826-0.044,1.016,0.324l110.822,214.6c0.192,0.37,0.044,0.822-0.326,1.012
					C1080.352,413.078,1080.234,413.104,1080.118,413.104z"/>
			</g>
			<g>
				<path d="M969.294,198.504c-0.178,0-0.356-0.062-0.5-0.188l-62.142-54.758c-0.312-0.274-0.34-0.75-0.064-1.06
					c0.276-0.312,0.754-0.34,1.064-0.066l62.142,54.758c0.314,0.274,0.342,0.75,0.066,1.06
					C969.71,198.418,969.502,198.504,969.294,198.504z"/>
			</g>
			<g style="opacity:0.721;">
				<path d="M951.878,316.872c-0.036,0-0.074-0.002-0.11-0.008c-0.414-0.06-0.698-0.442-0.638-0.852l17.418-118.368
					c0.06-0.412,0.456-0.694,0.856-0.636c0.412,0.062,0.698,0.442,0.638,0.854L952.624,316.23
					C952.568,316.604,952.246,316.872,951.878,316.872z"/>
			</g>
			<g style="opacity:0.6142;">
				<path d="M604.416,251.118c-0.31,0-0.6-0.192-0.71-0.5c-0.14-0.392,0.064-0.822,0.456-0.96l302.736-107.37
					c0.392-0.142,0.824,0.064,0.966,0.456c0.14,0.39-0.066,0.82-0.458,0.96L604.67,251.074
					C604.586,251.104,604.502,251.118,604.416,251.118z"/>
			</g>
			<g style="opacity:0.4568;">
				<path d="M994.374,315.448c-0.348,0-0.662-0.242-0.738-0.596l-25.08-116.942c-0.088-0.406,0.174-0.806,0.582-0.892
					c0.406-0.09,0.808,0.172,0.894,0.578l25.082,116.942c0.086,0.406-0.174,0.806-0.582,0.892
					C994.478,315.442,994.426,315.448,994.374,315.448z"/>
			</g>
			<g>
				<path d="M604.418,251.118c-0.02,0-0.038-0.002-0.058-0.002l-193.24-14.432c-0.416-0.03-0.728-0.39-0.696-0.804
					c0.03-0.414,0.404-0.708,0.808-0.694l193.24,14.43c0.416,0.03,0.73,0.392,0.698,0.806
					C605.14,250.816,604.808,251.118,604.418,251.118z"/>
			</g>
			<g style="opacity:0.3242;">
				<path d="M604.416,251.118c-0.162,0-0.328-0.052-0.466-0.162L308.214,19.87c-0.33-0.256-0.386-0.728-0.128-1.056
					c0.256-0.326,0.73-0.386,1.06-0.126l295.736,231.086c0.328,0.256,0.386,0.728,0.128,1.056
					C604.862,251.018,604.64,251.118,604.416,251.118z"/>
			</g>
			<g style="opacity:0.3971;">
				<path d="M951.878,316.872c-0.048,0-0.094-0.004-0.142-0.012l-347.46-65.756c-0.41-0.078-0.68-0.472-0.6-0.878
					c0.076-0.41,0.482-0.686,0.882-0.598l347.46,65.754c0.41,0.078,0.678,0.472,0.6,0.878
					C952.55,316.622,952.232,316.872,951.878,316.872z"/>
			</g>
			<g>
				<path d="M1080.116,413.104c-0.158,0-0.318-0.05-0.452-0.152L951.422,316.72c-0.332-0.248-0.4-0.72-0.148-1.052
					c0.25-0.334,0.724-0.398,1.056-0.148l128.242,96.232c0.332,0.25,0.4,0.722,0.148,1.052
					C1080.572,413.002,1080.346,413.104,1080.116,413.104z"/>
			</g>
			<g>
				<path d="M951.876,316.872c-0.336,0-0.644-0.224-0.73-0.564l-44.724-173.126c-0.104-0.4,0.138-0.81,0.542-0.914
					c0.396-0.098,0.816,0.138,0.92,0.54l44.724,173.126c0.104,0.402-0.14,0.812-0.544,0.916
					C952.002,316.864,951.938,316.872,951.876,316.872z"/>
			</g>
			<g style="opacity:0.9748;">
				<path d="M411.178,236.686c-0.286,0-0.556-0.158-0.686-0.43L307.996,19.598c-0.178-0.374-0.016-0.822,0.362-1
					c0.376-0.178,0.826-0.016,1.004,0.36L411.86,235.614c0.178,0.376,0.016,0.824-0.362,1.002
					C411.394,236.664,411.284,236.686,411.178,236.686z"/>
			</g>
			<g style="opacity:0.9634;">
				<path d="M1080.118,413.104c-0.212,0-0.42-0.088-0.57-0.258l-85.742-97.656c-0.274-0.312-0.242-0.788,0.072-1.06
					c0.312-0.274,0.79-0.244,1.064,0.072l85.744,97.656c0.274,0.312,0.242,0.786-0.072,1.06
					C1080.472,413.044,1080.294,413.104,1080.118,413.104z"/>
			</g>
			<g>
				<path d="M1076.55,518.664c-0.008,0-0.016,0-0.026,0c-0.416-0.014-0.742-0.362-0.728-0.778l3.566-105.56
					c0.014-0.414,0.302-0.754,0.78-0.726c0.418,0.014,0.744,0.362,0.73,0.778l-3.566,105.56
					C1077.292,518.344,1076.956,518.664,1076.55,518.664z"/>
			</g>
			<g style="opacity:0.4219;">
				<path d="M409.908,425.22c-0.206,0-0.412-0.084-0.56-0.25c-0.28-0.308-0.254-0.784,0.056-1.06l194.508-174.104
					c0.306-0.28,0.784-0.252,1.066,0.058c0.28,0.308,0.254,0.784-0.058,1.06L410.414,425.028
					C410.27,425.156,410.088,425.22,409.908,425.22z"/>
			</g>
			<g style="opacity:0.9621;">
				<path d="M994.376,315.448c-0.276,0-0.542-0.152-0.674-0.412l-87.222-171.7c-0.19-0.372-0.04-0.824,0.332-1.01
					c0.372-0.192,0.826-0.04,1.014,0.33l87.222,171.7c0.188,0.37,0.04,0.824-0.332,1.01
					C994.606,315.422,994.49,315.448,994.376,315.448z"/>
			</g>
			<g>
				<path d="M951.876,316.872c-0.406,0-0.74-0.32-0.754-0.726c-0.014-0.414,0.312-0.762,0.728-0.778l42.5-1.424
					c0.47,0.016,0.766,0.312,0.78,0.726c0.014,0.416-0.312,0.762-0.73,0.778l-42.498,1.424
					C951.894,316.872,951.884,316.872,951.876,316.872z"/>
			</g>
			<g style="opacity:0.9167;">
				<path d="M409.908,425.22c-0.002,0-0.002,0-0.004,0c-0.416-0.002-0.754-0.342-0.75-0.756l1.268-188.534
					c0.002-0.416,0.386-0.738,0.76-0.746c0.416,0.002,0.752,0.34,0.75,0.756l-1.268,188.534
					C410.66,424.888,410.324,425.22,409.908,425.22z"/>
			</g>
			<g style="opacity:0.01;">
				<path d="M16.034,109.448L0,87.07v2.59l14.804,20.662c0.148,0.204,0.38,0.314,0.616,0.314c0.15,0,0.304-0.044,0.438-0.14
					C16.196,110.256,16.276,109.786,16.034,109.448z"/>
			</g>
			<g style="opacity:0.6159;">
				<path d="M1029.238,639.906c-0.38,0-0.708-0.286-0.75-0.672l-34.864-324.458c-0.044-0.414,0.256-0.784,0.67-0.828
					c0.416-0.054,0.786,0.254,0.832,0.668l34.864,324.458c0.044,0.412-0.256,0.784-0.67,0.828
					C1029.292,639.904,1029.264,639.906,1029.238,639.906z"/>
			</g>
			<g style="opacity:0.4773;">
				<path d="M159.308,381.086c-0.262,0-0.516-0.134-0.656-0.376c-0.208-0.36-0.084-0.82,0.278-1.028L410.8,235.284
					c0.362-0.206,0.82-0.084,1.03,0.276c0.208,0.36,0.084,0.82-0.278,1.026l-251.868,144.4
					C159.564,381.054,159.436,381.086,159.308,381.086z"/>
			</g>
			<g>
				<path d="M1029.238,639.906c-0.09,0-0.182-0.018-0.272-0.052c-0.388-0.15-0.582-0.586-0.43-0.972l47.31-121.242
					c0.152-0.388,0.596-0.576,0.978-0.428c0.388,0.15,0.58,0.586,0.43,0.972l-47.312,121.242
					C1029.826,639.724,1029.54,639.906,1029.238,639.906z"/>
			</g>
			<g style="opacity:0.5244;">
				<path d="M15.418,110.636c-0.322,0-0.62-0.206-0.722-0.528c-0.122-0.398,0.1-0.818,0.498-0.94l293.262-90.606
					c0.404-0.126,0.822,0.098,0.944,0.494c0.124,0.396-0.098,0.818-0.496,0.94L15.642,110.602
					C15.568,110.626,15.492,110.636,15.418,110.636z"/>
			</g>
			<g style="opacity:0.1666;">
				<path d="M159.306,381.086c-0.096,0-0.194-0.018-0.288-0.056c-0.384-0.158-0.568-0.598-0.41-0.982L307.982,18.992
					c0.158-0.384,0.602-0.566,0.986-0.408c0.384,0.158,0.568,0.596,0.41,0.982L160.004,380.622
					C159.884,380.91,159.604,381.086,159.306,381.086z"/>
			</g>
			<g>
				<path d="M1076.55,518.664c-0.298,0-0.582-0.178-0.7-0.472l-82.176-203.216c-0.156-0.386,0.032-0.822,0.418-0.978
					c0.386-0.154,0.828,0.032,0.982,0.416l82.176,203.218c0.156,0.384-0.032,0.822-0.418,0.976
					C1076.74,518.646,1076.644,518.664,1076.55,518.664z"/>
			</g>
			<g style="opacity:0.7774;">
				<path d="M1029.238,639.906c-0.07,0-0.142-0.01-0.214-0.032c-0.4-0.118-0.628-0.538-0.508-0.936l67.84-226.822
					c0.118-0.398,0.532-0.63,0.938-0.506c0.4,0.118,0.628,0.538,0.508,0.934l-67.84,226.824
					C1029.866,639.694,1029.564,639.906,1029.238,639.906z"/>
			</g>
			<g>
				<path d="M1097.078,413.082c-0.186,0-0.374-0.07-0.52-0.208l-102.704-97.636c-0.302-0.286-0.312-0.762-0.024-1.062
					c0.284-0.3,0.766-0.31,1.066-0.024l102.704,97.636c0.302,0.286,0.312,0.762,0.024,1.062
					C1097.478,413.004,1097.278,413.082,1097.078,413.082z"/>
			</g>
			<g style="opacity:0.9237;">
				<path d="M409.91,425.22c-0.044,0-0.088-0.004-0.132-0.012l-250.604-44.134c-0.41-0.072-0.684-0.462-0.61-0.87
					c0.074-0.408,0.472-0.68,0.874-0.61l250.602,44.134c0.41,0.072,0.684,0.462,0.612,0.872
					C410.588,424.964,410.268,425.22,409.91,425.22z"/>
			</g>
			<g>
				<path d="M1076.552,518.664c-0.048,0-0.096-0.004-0.146-0.014c-0.408-0.08-0.676-0.474-0.596-0.88l20.528-105.582
					c0.08-0.408,0.482-0.672,0.884-0.596c0.41,0.08,0.678,0.474,0.598,0.882l-20.528,105.58
					C1077.222,518.414,1076.906,518.664,1076.552,518.664z"/>
			</g>
			<g style="opacity:0.7162;">
				<path d="M159.308,381.086c-0.272,0-0.534-0.144-0.668-0.4L14.752,110.236c-0.196-0.366-0.056-0.822,0.312-1.016
					c0.37-0.192,0.828-0.054,1.022,0.314l143.888,270.448c0.194,0.368,0.054,0.822-0.314,1.018
					C159.548,381.058,159.426,381.086,159.308,381.086z"/>
			</g>
			<g>
				<path d="M994.376,315.448c-0.244,0-0.484-0.118-0.63-0.336l-43.056-64.234c-0.23-0.346-0.136-0.812,0.21-1.044
					c0.348-0.23,0.816-0.136,1.048,0.21l43.054,64.234c0.232,0.346,0.138,0.812-0.208,1.044
					C994.664,315.406,994.52,315.448,994.376,315.448z"/>
			</g>
			<g style="opacity:0.8982;">
				<path d="M275.504,504.53c-0.258,0-0.51-0.13-0.65-0.368c-0.214-0.356-0.094-0.818,0.264-1.03l134.406-79.31
					c0.358-0.21,0.822-0.094,1.034,0.262c0.214,0.358,0.094,0.82-0.264,1.032l-134.406,79.31
					C275.768,504.496,275.634,504.53,275.504,504.53z"/>
			</g>
			<g>
				<path d="M1097.078,413.082c-0.206,0-0.412-0.084-0.562-0.25l-145.76-161.87c-0.278-0.308-0.25-0.784,0.058-1.062
					c0.31-0.276,0.786-0.252,1.068,0.058l145.76,161.87c0.278,0.31,0.25,0.786-0.058,1.062
					C1097.438,413.018,1097.258,413.082,1097.078,413.082z"/>
			</g>
			<g style="opacity:0.9949;">
				<path d="M275.504,504.53c-0.202,0-0.404-0.08-0.552-0.236L158.756,380.848c-0.286-0.302-0.27-0.778,0.034-1.062
					s0.782-0.268,1.068,0.034l116.196,123.446c0.284,0.302,0.27,0.778-0.034,1.062C275.874,504.464,275.688,504.53,275.504,504.53z"
					/>
			</g>
			<g style="opacity:0.8116;">
				<path d="M409.908,425.22L409.908,425.22l-95.06-0.086c-0.416,0-0.754-0.338-0.754-0.754c0-0.414,0.338-0.75,0.756-0.75l0,0
					l95.06,0.086c0.416,0,0.754,0.338,0.754,0.754C410.664,424.884,410.326,425.22,409.908,425.22z"/>
			</g>
			<g style="opacity:0.8419;">
				<path d="M314.85,425.134c-0.068,0-0.138-0.01-0.208-0.03L159.1,381.058c-0.402-0.114-0.634-0.53-0.52-0.93
					c0.114-0.398,0.534-0.628,0.934-0.518l155.542,44.048c0.4,0.114,0.634,0.53,0.52,0.928
					C315.482,424.918,315.178,425.134,314.85,425.134z"/>
			</g>
			<g style="opacity:0.331;">
				<path d="M0,257.426l16.168-147.46c0.046-0.412-0.252-0.784-0.668-0.828c-0.41-0.064-0.788,0.252-0.832,0.666L0,243.582V257.426z
					"/>
			</g>
			<g>
				<path d="M951.32,251.212c-0.32,0-0.616-0.202-0.72-0.52l-11.574-35.68c-0.128-0.396,0.088-0.818,0.486-0.946
					c0.394-0.124,0.822,0.088,0.95,0.484l11.576,35.68c0.128,0.394-0.09,0.818-0.486,0.946
					C951.474,251.2,951.396,251.212,951.32,251.212z"/>
			</g>
			<g style="opacity:0.7553;">
				<path d="M159.17,379.596L0,408.724v1.528l159.444-29.178c0.41-0.074,0.68-0.468,0.604-0.876
					C159.974,379.79,159.578,379.52,159.17,379.596z"/>
			</g>
			<g>
				<path d="M1127.446,483.14c-0.292,0-0.57-0.17-0.692-0.454l-30.368-70.058c-0.166-0.38,0.01-0.824,0.394-0.988
					c0.382-0.164,0.826,0.01,0.992,0.392l30.368,70.058c0.164,0.382-0.012,0.824-0.394,0.988
					C1127.648,483.12,1127.546,483.14,1127.446,483.14z"/>
			</g>
			<g>
				<path d="M854.84,383.282c-0.154,0-0.308-0.046-0.444-0.144c-0.336-0.242-0.412-0.714-0.166-1.05l96.478-132.07
					c0.244-0.332,0.718-0.408,1.056-0.166c0.336,0.244,0.412,0.716,0.166,1.05l-96.478,132.072
					C855.304,383.176,855.074,383.282,854.84,383.282z"/>
			</g>
			<g style="opacity:0.4934;">
				<path d="M16.108,109.58c-0.168-0.38-0.614-0.552-0.996-0.382L0,115.868v1.644l15.724-6.94
					C16.106,110.404,16.278,109.96,16.108,109.58z"/>
			</g>
			<g>
				<path d="M854.84,383.282c-0.114,0-0.23-0.024-0.34-0.08c-0.37-0.186-0.522-0.638-0.334-1.01l84.904-167.75
					c0.188-0.37,0.64-0.518,1.014-0.332c0.372,0.186,0.522,0.638,0.334,1.01l-84.902,167.75
					C855.382,383.132,855.116,383.282,854.84,383.282z"/>
			</g>
			<g>
				<path d="M275.502,504.53c-0.112,0-0.226-0.024-0.334-0.076c-0.372-0.184-0.526-0.634-0.342-1.008l39.346-79.398
					c0.184-0.372,0.636-0.526,1.012-0.342c0.374,0.184,0.526,0.636,0.342,1.008l-39.346,79.398
					C276.048,504.378,275.782,504.53,275.502,504.53z"/>
			</g>
			<g style="opacity:0.7129;">
				<path d="M275.728,503.062L0,417.476v1.576l275.278,85.444c0.076,0.024,0.15,0.034,0.226,0.034c0.32,0,0.62-0.206,0.72-0.526
					C276.348,503.606,276.126,503.184,275.728,503.062z"/>
			</g>
			<g style="opacity:0.8126;">
				<path d="M1127.446,483.14c-0.086,0-0.174-0.014-0.26-0.046L854.58,383.236c-0.39-0.144-0.592-0.574-0.448-0.964
					c0.144-0.392,0.58-0.592,0.97-0.446l272.604,99.856c0.392,0.144,0.592,0.576,0.45,0.966
					C1128.042,482.952,1127.754,483.14,1127.446,483.14z"/>
			</g>
			<g>
				<path d="M939.744,215.532c-0.046,0-0.094-0.004-0.142-0.014L863.234,201c-0.41-0.078-0.678-0.47-0.6-0.878
					c0.078-0.408,0.472-0.686,0.882-0.598l76.37,14.518c0.41,0.078,0.678,0.472,0.6,0.88
					C940.416,215.282,940.1,215.532,939.744,215.532z"/>
			</g>
			<g>
				<path d="M647.67,455.904c-0.31,0-0.602-0.192-0.712-0.502c-0.138-0.39,0.068-0.82,0.462-0.958l207.17-72.622
					c0.39-0.138,0.824,0.066,0.962,0.46c0.14,0.39-0.068,0.82-0.46,0.958l-207.17,72.622
					C647.838,455.892,647.754,455.904,647.67,455.904z"/>
			</g>
			<g>
				<path d="M854.842,383.282c-0.012,0-0.024,0-0.036,0c-0.416-0.02-0.738-0.372-0.72-0.786l8.536-182.27
					c0.018-0.414,0.378-0.752,0.788-0.714c0.416,0.02,0.74,0.37,0.72,0.786l-8.534,182.268
					C855.576,382.968,855.242,383.282,854.842,383.282z"/>
			</g>
			<g>
				<path d="M988.898,310.196c-0.274,0-0.538-0.148-0.672-0.406l-49.152-94.664c-0.192-0.368-0.046-0.822,0.322-1.012
					c0.374-0.194,0.828-0.048,1.018,0.322l49.154,94.664c0.19,0.368,0.046,0.822-0.324,1.012
					C989.132,310.17,989.014,310.196,988.898,310.196z"/>
			</g>
			<g style="opacity:0.8818;">
				<path d="M1127.446,483.14c-0.22,0-0.44-0.098-0.59-0.284l-138.55-172.942c-0.26-0.326-0.206-0.798,0.12-1.056
					c0.328-0.258,0.802-0.206,1.06,0.118l138.55,172.944c0.26,0.324,0.206,0.796-0.118,1.056
					C1127.778,483.086,1127.612,483.14,1127.446,483.14z"/>
			</g>
			<g>
				<path d="M854.842,383.282c-0.268,0-0.526-0.14-0.664-0.39c-0.2-0.364-0.066-0.822,0.3-1.02l134.056-73.086
					c0.368-0.198,0.824-0.064,1.026,0.298c0.198,0.364,0.066,0.82-0.3,1.02L855.204,383.19
					C855.088,383.254,854.964,383.282,854.842,383.282z"/>
			</g>
			<g>
				<path d="M988.896,310.196c-0.176,0-0.354-0.06-0.496-0.186L862.878,200.828c-0.314-0.274-0.346-0.748-0.07-1.06
					c0.274-0.314,0.752-0.344,1.064-0.072L989.394,308.88c0.314,0.272,0.346,0.746,0.072,1.06
					C989.316,310.11,989.108,310.196,988.896,310.196z"/>
			</g>
			<g style="opacity:0.7282;">
				<path d="M314.85,425.134c-0.168,0-0.334-0.056-0.474-0.168L152.692,295.068c-0.326-0.262-0.376-0.734-0.114-1.058
					c0.26-0.322,0.736-0.372,1.06-0.114l161.686,129.9c0.324,0.262,0.374,0.734,0.114,1.058
					C315.288,425.038,315.07,425.134,314.85,425.134z"/>
			</g>
			<g style="opacity:0.7669;">
				<path d="M153.786,294.054c-0.238-0.342-0.708-0.426-1.052-0.19L0,399.522v1.83L153.596,295.1
					C153.938,294.862,154.024,294.394,153.786,294.054z"/>
			</g>
			<g style="opacity:0.6606;">
				<path d="M647.67,455.904c-0.216,0-0.432-0.092-0.582-0.272c-0.264-0.32-0.22-0.794,0.102-1.058l161.76-133.072
					c0.318-0.262,0.796-0.222,1.062,0.102c0.266,0.32,0.22,0.794-0.102,1.058l-161.758,133.07
					C648.01,455.848,647.84,455.904,647.67,455.904z"/>
			</g>
			<g style="opacity:0.7921;">
				<path d="M153.574,293.85L0,195.19v1.788l152.756,98.136c0.126,0.08,0.268,0.12,0.408,0.12c0.248,0,0.49-0.122,0.636-0.344
					C154.026,294.54,153.924,294.076,153.574,293.85z"/>
			</g>
			<g>
				<path d="M809.428,322.834c-0.392,0-0.722-0.302-0.752-0.7c-0.028-0.414,0.284-0.772,0.7-0.802l179.468-12.636
					c0.408-0.028,0.776,0.282,0.806,0.696c0.03,0.414-0.284,0.774-0.7,0.802l-179.468,12.638
					C809.466,322.832,809.446,322.834,809.428,322.834z"/>
			</g>
			<g style="opacity:0.439;">
				<path d="M1090.956,573.574c-0.18,0-0.36-0.062-0.504-0.192l-281.526-250.74c-0.31-0.276-0.336-0.752-0.058-1.062
					c0.276-0.31,0.754-0.336,1.066-0.058l281.524,250.74c0.312,0.276,0.338,0.752,0.06,1.062
					C1091.368,573.49,1091.162,573.574,1090.956,573.574z"/>
			</g>
			<g>
				<path d="M809.428,322.834c-0.128,0-0.26-0.034-0.38-0.102L705.9,262.618c-0.36-0.208-0.48-0.67-0.27-1.028
					c0.21-0.358,0.674-0.478,1.034-0.27l103.148,60.114c0.36,0.208,0.48,0.67,0.27,1.028
					C809.942,322.7,809.688,322.834,809.428,322.834z"/>
			</g>
			<g style="opacity:0.7101;">
				<path d="M153.166,295.234c-0.046,0-0.092-0.004-0.138-0.012c-0.41-0.076-0.68-0.466-0.606-0.876l6.464-35.07
					c0.076-0.41,0.464-0.682,0.88-0.604c0.41,0.074,0.68,0.466,0.606,0.876l-6.464,35.07
					C153.84,294.98,153.522,295.234,153.166,295.234z"/>
			</g>
			<g style="opacity:0.9017;">
				<path d="M576.612,502.754c-0.12,0-0.244-0.028-0.358-0.09c-0.366-0.196-0.504-0.652-0.306-1.018l129.67-240.032
					c0.198-0.364,0.654-0.504,1.022-0.306c0.366,0.196,0.504,0.652,0.306,1.018l-129.67,240.032
					C577.14,502.612,576.88,502.754,576.612,502.754z"/>
			</g>
			<g style="opacity:0.827;">
				<path d="M576.614,502.754c-0.016,0-0.032,0-0.048,0l-279.044-16.982c-0.414-0.024-0.732-0.38-0.706-0.796
					c0.024-0.414,0.374-0.726,0.8-0.704l279.042,16.98c0.416,0.026,0.732,0.382,0.708,0.796
					C577.342,502.446,577.008,502.754,576.614,502.754z"/>
			</g>
			<g style="opacity:0.8886;">
				<path d="M1090.954,573.574c-0.11,0-0.226-0.024-0.332-0.078c-0.374-0.182-0.528-0.634-0.344-1.006l98.36-199.004
					c0.184-0.372,0.634-0.53,1.012-0.344c0.374,0.184,0.528,0.634,0.344,1.006l-98.362,199.006
					C1091.5,573.42,1091.234,573.574,1090.954,573.574z"/>
			</g>
			<g>
				<path d="M1090.956,573.574c-0.226,0-0.448-0.1-0.598-0.29c-0.256-0.328-0.196-0.802,0.134-1.056l123.84-95.736
					c0.326-0.252,0.804-0.198,1.058,0.134c0.254,0.328,0.196,0.8-0.134,1.054l-123.838,95.736
					C1091.28,573.522,1091.118,573.574,1090.956,573.574z"/>
			</g>
			<g style="opacity:0.6122;">
				<path d="M706.282,262.722c-0.358,0-0.676-0.254-0.742-0.616c-0.076-0.41,0.196-0.8,0.606-0.876l337.114-61.63
					c0.412-0.074,0.804,0.196,0.88,0.604c0.074,0.408-0.196,0.8-0.606,0.874l-337.116,61.63
					C706.372,262.718,706.326,262.722,706.282,262.722z"/>
			</g>
			<g style="opacity:0.7845;">
				<path d="M160.082,258.81L0,139.322v1.88l159.176,118.812c0.136,0.1,0.294,0.148,0.452,0.148c0.23,0,0.458-0.102,0.606-0.3
					C160.484,259.53,160.416,259.058,160.082,258.81z"/>
			</g>
			<g style="opacity:0.9207;">
				<path d="M297.57,485.774c-0.254,0-0.504-0.128-0.646-0.362l-137.94-225.61c-0.218-0.354-0.104-0.816,0.252-1.032
					c0.356-0.216,0.82-0.104,1.038,0.25l137.94,225.612c0.218,0.354,0.104,0.816-0.252,1.032
					C297.84,485.738,297.704,485.774,297.57,485.774z"/>
			</g>
			<g>
				<path d="M1189.316,374.568c-0.216,0-0.43-0.092-0.58-0.268l-145.918-173.478c-0.268-0.318-0.226-0.792,0.094-1.06
					c0.318-0.266,0.794-0.224,1.064,0.094l145.918,173.478c0.268,0.318,0.226,0.792-0.094,1.06
					C1189.66,374.512,1189.486,374.568,1189.316,374.568z"/>
			</g>
			<g style="opacity:0.73;">
				<path d="M1214.794,477.838c-0.252,0-0.5-0.126-0.644-0.358l-171.396-276.746c-0.218-0.354-0.108-0.816,0.246-1.034
					c0.358-0.218,0.82-0.108,1.04,0.246l171.396,276.746c0.218,0.354,0.108,0.816-0.246,1.034
					C1215.066,477.802,1214.93,477.838,1214.794,477.838z"/>
			</g>
			<g>
				<path d="M1214.794,477.838c-0.34,0-0.65-0.228-0.734-0.572l-25.478-103.27c-0.098-0.404,0.148-0.81,0.554-0.91
					c0.402-0.098,0.814,0.148,0.914,0.552l25.476,103.27c0.102,0.402-0.146,0.81-0.552,0.908
					C1214.914,477.832,1214.852,477.838,1214.794,477.838z"/>
			</g>
			<g style="opacity:0.6732;">
				<path d="M706.284,262.722c-0.272,0-0.534-0.146-0.67-0.4c-0.194-0.368-0.054-0.822,0.316-1.016l34.226-18.016
					c0.37-0.192,0.824-0.052,1.02,0.314c0.194,0.366,0.054,0.822-0.314,1.016l-34.226,18.014
					C706.522,262.694,706.402,262.722,706.284,262.722z"/>
			</g>
			<g>
				<path d="M159.628,260.162c-0.124,0-0.252-0.03-0.368-0.096l-53.956-30.212c-0.362-0.204-0.492-0.662-0.288-1.022
					c0.206-0.36,0.664-0.49,1.028-0.288l53.954,30.212c0.364,0.204,0.494,0.662,0.288,1.024
					C160.148,260.024,159.892,260.162,159.628,260.162z"/>
			</g>
			<g style="opacity:0.6881;">
				<path d="M1151.456,438.872c-0.286,0-0.562-0.164-0.688-0.44l-108.06-237.782c-0.172-0.378-0.002-0.824,0.378-0.996
					c0.378-0.168,0.826-0.002,1,0.376l108.058,237.78c0.172,0.38,0.004,0.824-0.376,0.996
					C1151.666,438.85,1151.56,438.872,1151.456,438.872z"/>
			</g>
			<g>
				<path d="M1151.456,438.872c-0.13,0-0.262-0.032-0.382-0.102c-0.36-0.21-0.48-0.67-0.27-1.03l37.86-64.302
					c0.21-0.36,0.672-0.48,1.034-0.27c0.36,0.21,0.48,0.67,0.27,1.028l-37.86,64.304
					C1151.968,438.74,1151.714,438.872,1151.456,438.872z"/>
			</g>
			<g>
				<path d="M1214.794,477.838c-0.136,0-0.274-0.036-0.398-0.112l-63.338-38.966c-0.354-0.218-0.464-0.682-0.244-1.034
					c0.22-0.352,0.682-0.464,1.04-0.244l63.336,38.966c0.354,0.218,0.464,0.68,0.246,1.034
					C1215.292,477.712,1215.046,477.838,1214.794,477.838z"/>
			</g>
			<g style="opacity:0.9279;">
				<path d="M1196.928,572.816c-0.046,0-0.094-0.004-0.14-0.012c-0.41-0.076-0.68-0.47-0.604-0.878l17.868-94.978
					c0.074-0.406,0.468-0.676,0.88-0.6c0.41,0.076,0.68,0.468,0.602,0.876l-17.866,94.978
					C1197.6,572.564,1197.284,572.816,1196.928,572.816z"/>
			</g>
			<g style="opacity:0.5906;">
				<path d="M20.938,0h-1.612l85.64,229.462c0.114,0.302,0.402,0.49,0.708,0.49c0.088,0,0.176-0.016,0.264-0.048
					c0.39-0.144,0.59-0.578,0.444-0.966L20.938,0z"/>
			</g>
			<g style="opacity:0.6219;">
				<path d="M106.058,228.552L0,166.1v1.748l105.29,61.998c0.122,0.072,0.252,0.106,0.384,0.106c0.258,0,0.51-0.132,0.65-0.37
					C106.536,229.224,106.418,228.764,106.058,228.552z"/>
			</g>
			<g>
				<path d="M1196.926,572.816c-0.314,0-0.608-0.198-0.716-0.51l-45.47-133.944c-0.132-0.394,0.08-0.82,0.474-0.954
					c0.4-0.132,0.824,0.08,0.958,0.472l45.47,133.944c0.134,0.394-0.078,0.82-0.474,0.954
					C1197.088,572.804,1197.006,572.816,1196.926,572.816z"/>
			</g>
			<g>
				<path d="M1226.832,554.316c-0.246,0-0.486-0.122-0.632-0.342l-75.378-115.444c-0.226-0.348-0.126-0.814,0.222-1.04
					c0.354-0.226,0.82-0.126,1.046,0.22l75.376,115.444c0.228,0.348,0.128,0.814-0.222,1.04
					C1227.118,554.276,1226.974,554.316,1226.832,554.316z"/>
			</g>
			<g>
				<path d="M1196.928,572.816c-0.254,0-0.5-0.126-0.642-0.354c-0.22-0.354-0.112-0.816,0.242-1.036l29.906-18.5
					c0.35-0.22,0.818-0.114,1.04,0.24c0.22,0.354,0.112,0.816-0.242,1.036l-29.906,18.502
					C1197.2,572.78,1197.062,572.816,1196.928,572.816z"/>
			</g>
			<g style="opacity:0.9268;">
				<path d="M904.2,330.046c-0.118,0-0.238-0.028-0.35-0.086l-163.692-85.34c-0.37-0.192-0.512-0.646-0.318-1.014
					c0.192-0.368,0.648-0.51,1.018-0.316l163.692,85.338c0.37,0.192,0.512,0.646,0.318,1.014
					C904.734,329.9,904.472,330.046,904.2,330.046z"/>
			</g>
			<g style="opacity:0.5853;">
				<path d="M826.266,374.69c-0.246,0-0.486-0.12-0.632-0.338l-85.756-129.984c-0.23-0.348-0.132-0.814,0.216-1.042
					c0.35-0.228,0.818-0.13,1.046,0.216l85.756,129.984c0.228,0.346,0.132,0.812-0.216,1.04
					C826.552,374.65,826.408,374.69,826.266,374.69z"/>
			</g>
			<g>
				<path d="M503.464,629.928c-0.258,0-0.508-0.13-0.65-0.366c-0.214-0.356-0.096-0.818,0.26-1.032l39.674-23.608
					c0.358-0.214,0.822-0.096,1.036,0.258c0.214,0.358,0.098,0.82-0.26,1.032L503.85,629.82
					C503.728,629.894,503.594,629.928,503.464,629.928z"/>
			</g>
			<g style="opacity:0.4438;">
				<path d="M543.136,606.318c-0.09,0-0.18-0.016-0.268-0.048L194.82,474.32c-0.39-0.148-0.586-0.582-0.436-0.97
					c0.148-0.388,0.584-0.582,0.974-0.436l348.046,131.95c0.39,0.148,0.586,0.582,0.438,0.97
					C543.726,606.134,543.44,606.318,543.136,606.318z"/>
			</g>
			<g style="opacity:0.3806;">
				<path d="M543.136,606.318c-0.218,0-0.434-0.094-0.584-0.274c-0.264-0.32-0.218-0.794,0.104-1.058l283.128-231.628
					c0.322-0.264,0.8-0.218,1.064,0.102c0.266,0.322,0.218,0.796-0.104,1.058L543.616,606.146
					C543.476,606.262,543.306,606.318,543.136,606.318z"/>
			</g>
			<g style="opacity:0.7011;">
				<path d="M503.462,629.928c-0.114,0-0.232-0.026-0.34-0.082L194.748,474.288c-0.372-0.188-0.522-0.64-0.332-1.01
					c0.186-0.37,0.64-0.518,1.014-0.332l308.374,155.56c0.372,0.188,0.52,0.64,0.332,1.01
					C504.002,629.776,503.738,629.928,503.462,629.928z"/>
			</g>
			<g>
				<path d="M195.29,472.892L0,419.228v1.56l194.888,53.554c0.068,0.018,0.136,0.028,0.202,0.028c0.33,0,0.634-0.22,0.726-0.552
					C195.928,473.416,195.692,473.004,195.29,472.892z"/>
			</g>
			<g style="opacity:0.9896;">
				<path d="M1226.832,554.316c-0.384,0-0.716-0.292-0.75-0.682l-10.266-109.242c-0.04-0.414,0.266-0.78,0.68-0.82
					c0.412-0.04,0.784,0.266,0.822,0.678l10.266,109.242c0.04,0.414-0.266,0.78-0.68,0.82
					C1226.88,554.314,1226.856,554.316,1226.832,554.316z"/>
			</g>
			<g>
				<path d="M826.266,374.69c-0.262,0-0.516-0.134-0.656-0.376c-0.208-0.36-0.084-0.82,0.278-1.028l77.936-44.644
					c0.362-0.206,0.824-0.082,1.032,0.278c0.206,0.36,0.082,0.818-0.28,1.026l-77.934,44.644
					C826.522,374.658,826.394,374.69,826.266,374.69z"/>
			</g>
			<g style="opacity:0.4284;">
				<path d="M503.462,629.928c-0.222,0-0.442-0.098-0.59-0.284c-0.26-0.326-0.206-0.8,0.12-1.056L825.794,373.35
					c0.33-0.26,0.804-0.204,1.062,0.12c0.26,0.326,0.206,0.8-0.122,1.056L503.932,629.764
					C503.792,629.874,503.628,629.928,503.462,629.928z"/>
			</g>
			<g style="opacity:0.5087;">
				<path d="M654.85,692.082c-0.16,0-0.322-0.05-0.46-0.156l-111.716-85.764c-0.33-0.254-0.39-0.726-0.136-1.054
					c0.254-0.33,0.726-0.394,1.06-0.136l111.714,85.764c0.33,0.254,0.392,0.724,0.138,1.054
					C655.3,691.982,655.076,692.082,654.85,692.082z"/>
			</g>
			<g style="opacity:0.9738;">
				<path d="M904.2,330.046c-0.368,0-0.69-0.268-0.746-0.642l-27.378-183.156c-0.062-0.41,0.222-0.792,0.636-0.854
					c0.404-0.054,0.796,0.222,0.858,0.634l27.378,183.156c0.06,0.41-0.224,0.792-0.636,0.854
					C904.274,330.044,904.236,330.046,904.2,330.046z"/>
			</g>
			<g style="opacity:0.9237;">
				<path d="M654.852,692.082c-0.096,0-0.194-0.018-0.288-0.056l-151.39-62.156c-0.386-0.158-0.57-0.598-0.41-0.982
					c0.16-0.382,0.602-0.564,0.986-0.408l151.39,62.156c0.384,0.158,0.568,0.598,0.41,0.982
					C655.43,691.908,655.148,692.082,654.852,692.082z"/>
			</g>
			<g style="opacity:0.6772;">
				<path d="M1073.062,351.54c-0.032,0-0.064-0.002-0.096-0.006L904.104,330.04c-0.412-0.052-0.706-0.43-0.652-0.84
					c0.052-0.412,0.414-0.704,0.844-0.652l168.86,21.494c0.414,0.054,0.706,0.43,0.654,0.842
					C1073.76,351.264,1073.436,351.54,1073.062,351.54z"/>
			</g>
			<g>
				<path d="M826.266,374.69c-0.054,0-0.11-0.006-0.164-0.018c-0.408-0.09-0.664-0.49-0.574-0.896l50.558-227.8
					c0.088-0.406,0.494-0.656,0.9-0.572c0.406,0.09,0.664,0.492,0.574,0.896l-50.558,227.8
					C826.924,374.452,826.612,374.69,826.266,374.69z"/>
			</g>
			<g style="opacity:0.5708;">
				<path d="M654.85,692.082c-0.12,0-0.242-0.028-0.356-0.09c-0.368-0.196-0.504-0.652-0.308-1.018L825.6,373.582
					c0.196-0.364,0.65-0.506,1.022-0.306c0.368,0.196,0.504,0.652,0.308,1.018L655.516,691.688
					C655.38,691.94,655.12,692.082,654.85,692.082z"/>
			</g>
			<g style="opacity:0.8588;">
				<path d="M826.264,374.69c-0.386,0-0.714-0.292-0.752-0.682c-0.038-0.412,0.268-0.78,0.682-0.818l246.796-23.15
					c0.4-0.046,0.782,0.264,0.822,0.678c0.038,0.412-0.266,0.78-0.68,0.82l-246.796,23.15
					C826.312,374.69,826.288,374.69,826.264,374.69z"/>
			</g>
			<g>
				<path d="M1216.566,445.072c-0.142,0-0.284-0.038-0.412-0.122l-143.508-93.532c-0.348-0.228-0.446-0.694-0.218-1.042
					c0.23-0.346,0.694-0.446,1.046-0.218l143.506,93.534c0.35,0.228,0.446,0.694,0.218,1.04
					C1217.054,444.954,1216.812,445.072,1216.566,445.072z"/>
			</g>
			<g style="opacity:0.8881;">
				<path d="M1073.06,351.54c-0.198,0-0.398-0.078-0.546-0.232L876.276,146.656c-0.288-0.298-0.276-0.776,0.026-1.062
					c0.298-0.286,0.778-0.276,1.066,0.026l196.238,204.65c0.288,0.3,0.278,0.776-0.024,1.062
					C1073.436,351.47,1073.248,351.54,1073.06,351.54z"/>
			</g>
			<g style="opacity:0.2269;">
				<path d="M1225.33,436.132c-0.036,0-0.076-0.004-0.116-0.01l-399.064-61.44c-0.414-0.064-0.696-0.448-0.632-0.858
					c0.064-0.412,0.458-0.688,0.862-0.628l399.066,61.44c0.412,0.064,0.694,0.448,0.63,0.858
					C1226.018,435.866,1225.698,436.132,1225.33,436.132z"/>
			</g>
			<g>
				<path d="M1216.566,445.072c-0.19,0-0.38-0.07-0.526-0.212c-0.298-0.292-0.304-0.768-0.014-1.064l8.764-8.94
					c0.292-0.3,0.772-0.302,1.068-0.014c0.298,0.29,0.304,0.766,0.014,1.062l-8.764,8.942
					C1216.96,444.998,1216.764,445.072,1216.566,445.072z"/>
			</g>
			<g>
				<path d="M1225.33,436.132c-0.126,0-0.252-0.03-0.368-0.096l-152.27-84.59c-0.364-0.204-0.494-0.662-0.292-1.024
					c0.204-0.362,0.662-0.494,1.028-0.29l152.27,84.592c0.364,0.202,0.496,0.66,0.292,1.022
					C1225.852,435.992,1225.594,436.132,1225.33,436.132z"/>
			</g>
			<g style="opacity:0.9498;">
				<path d="M608.7,869.696c-0.064,0-0.128-0.008-0.19-0.022c-0.404-0.104-0.648-0.516-0.544-0.916l46.154-177.616
					c0.104-0.402,0.518-0.642,0.92-0.54c0.404,0.106,0.648,0.516,0.542,0.916L609.43,869.132
					C609.34,869.472,609.034,869.696,608.7,869.696z"/>
			</g>
			<g style="opacity:0.5522;">
				<path d="M768.5,241.5c-0.208,0-0.418-0.086-0.566-0.256c-0.276-0.312-0.244-0.788,0.07-1.06l108.32-94.612
					c0.312-0.272,0.794-0.244,1.066,0.07c0.274,0.312,0.244,0.788-0.07,1.06l-108.322,94.61
					C768.856,241.438,768.678,241.5,768.5,241.5z"/>
			</g>
			<g style="opacity:0.3323;">
				<path d="M654.852,692.082c-0.05,0-0.1-0.004-0.15-0.014l-313.878-63.262c-0.41-0.082-0.674-0.478-0.592-0.886
					c0.084-0.408,0.486-0.67,0.89-0.588L655,690.594c0.41,0.082,0.674,0.48,0.592,0.886
					C655.518,691.836,655.204,692.082,654.852,692.082z"/>
			</g>
			<g style="opacity:0.6588;">
				<path d="M608.698,869.696c-0.18,0-0.362-0.064-0.506-0.194L340.466,628.628c-0.31-0.28-0.332-0.754-0.054-1.062
					c0.28-0.312,0.758-0.334,1.068-0.054l267.724,240.876c0.31,0.278,0.334,0.752,0.054,1.06
					C609.108,869.612,608.904,869.696,608.698,869.696z"/>
			</g>
			<g style="opacity:0.4003;">
				<path d="M1355.364,574.154c-0.202,0-0.402-0.08-0.552-0.238L1224.78,435.894c-0.286-0.302-0.27-0.778,0.034-1.062
					c0.302-0.284,0.78-0.272,1.066,0.034l130.034,138.022c0.284,0.302,0.27,0.778-0.034,1.062
					C1355.734,574.086,1355.548,574.154,1355.364,574.154z"/>
			</g>
			<g style="opacity:0.678;">
				<path d="M608.7,869.696c-0.236,0-0.466-0.106-0.614-0.312L517.43,744.018c-0.244-0.336-0.168-0.806,0.17-1.05
					c0.34-0.24,0.812-0.162,1.054,0.172l90.656,125.366c0.244,0.338,0.168,0.808-0.17,1.05
					C609.006,869.652,608.852,869.696,608.7,869.696z"/>
			</g>
			<g style="opacity:0.9809;">
				<path d="M878.612,361.508c-0.204,0-0.408-0.082-0.556-0.244L767.944,241.256c-0.282-0.308-0.26-0.782,0.048-1.062
					c0.308-0.28,0.786-0.26,1.066,0.048L879.17,360.25c0.282,0.306,0.26,0.782-0.048,1.062
					C878.978,361.444,878.794,361.508,878.612,361.508z"/>
			</g>
			<g style="opacity:0.1407;">
				<path d="M608.7,869.696c-0.034,0-0.068-0.002-0.104-0.006l-307.85-41.486c-0.412-0.056-0.702-0.436-0.646-0.846
					c0.056-0.41,0.44-0.698,0.85-0.644L608.8,868.2c0.412,0.056,0.702,0.434,0.646,0.844
					C609.396,869.422,609.07,869.696,608.7,869.696z"/>
			</g>
			<g style="opacity:0.9022;">
				<path d="M518.04,744.33c-0.14,0-0.284-0.04-0.412-0.122l-177.07-115.51c-0.348-0.228-0.446-0.692-0.216-1.04
					c0.226-0.346,0.692-0.444,1.044-0.216l177.07,115.508c0.348,0.228,0.446,0.694,0.218,1.04
					C518.528,744.212,518.288,744.33,518.04,744.33z"/>
			</g>
			<g style="opacity:0.6783;">
				<path d="M300.848,828.21c-0.048,0-0.098-0.004-0.148-0.014c-0.41-0.082-0.674-0.478-0.592-0.886l40.124-199.388
					c0.082-0.408,0.476-0.672,0.89-0.59c0.408,0.082,0.672,0.478,0.592,0.886l-40.126,199.388
					C301.516,827.964,301.2,828.21,300.848,828.21z"/>
			</g>
			<g style="opacity:0.1919;">
				<path d="M1355.364,574.154c-0.104,0-0.21-0.02-0.31-0.066l-476.75-212.646c-0.38-0.17-0.55-0.614-0.38-0.994
					c0.17-0.378,0.616-0.55,0.998-0.378l476.75,212.646c0.382,0.17,0.55,0.614,0.38,0.994
					C1355.928,573.988,1355.65,574.154,1355.364,574.154z"/>
			</g>
			<g style="opacity:0.8004;">
				<path d="M1139.196,582.086c-0.174,0-0.348-0.058-0.488-0.178l-260.584-220.58c-0.318-0.268-0.356-0.742-0.086-1.058
					c0.27-0.318,0.75-0.354,1.064-0.086l260.582,220.578c0.318,0.27,0.358,0.742,0.086,1.06
					C1139.622,581.996,1139.408,582.086,1139.196,582.086z"/>
			</g>
			<g>
				<path d="M1139.194,582.086c-0.404,0-0.738-0.318-0.752-0.724c-0.016-0.414,0.31-0.764,0.726-0.778l216.168-7.932
					c0.406-0.05,0.766,0.306,0.782,0.722c0.016,0.416-0.31,0.764-0.728,0.778l-216.166,7.934
					C1139.214,582.086,1139.204,582.086,1139.194,582.086z"/>
			</g>
			<g>
				<path d="M300.848,828.21c-0.302,0-0.588-0.182-0.704-0.48c-0.15-0.386,0.042-0.822,0.43-0.972l217.194-83.88
					c0.39-0.148,0.826,0.04,0.978,0.428c0.15,0.388-0.042,0.824-0.43,0.974l-217.194,83.88
					C301.03,828.194,300.94,828.21,300.848,828.21z"/>
			</g>
			<g style="opacity:0.7703;">
				<path d="M283.604,942.598c-0.212,0-0.424-0.09-0.574-0.264c-0.27-0.316-0.232-0.79,0.086-1.06l234.438-198.268
					c0.316-0.268,0.794-0.228,1.064,0.086c0.27,0.316,0.23,0.792-0.088,1.06L284.094,942.42
					C283.952,942.54,283.778,942.598,283.604,942.598z"/>
			</g>
			<g style="opacity:0.7758;">
				<path d="M301.136,826.764L0,702.606v1.628l300.558,123.92c0.096,0.038,0.194,0.056,0.29,0.056c0.296,0,0.576-0.174,0.698-0.464
					C301.706,827.362,301.522,826.924,301.136,826.764z"/>
			</g>
			<g>
				<path d="M283.606,942.598c-0.038,0-0.074-0.002-0.114-0.008c-0.412-0.062-0.696-0.444-0.634-0.854l17.244-114.388
					c0.062-0.412,0.444-0.698,0.858-0.632c0.412,0.06,0.696,0.444,0.634,0.854l-17.242,114.388
					C284.296,942.33,283.974,942.598,283.606,942.598z"/>
			</g>
			<g style="opacity:0.6696;">
				<path d="M284.082,941.266L0,710.04v1.942l283.128,230.446c0.14,0.116,0.308,0.17,0.476,0.17c0.22,0,0.436-0.094,0.586-0.276
					C284.454,942.002,284.406,941.528,284.082,941.266z"/>
			</g>
			<g style="opacity:0.3478;">
				<path d="M1545.962,648.918c-0.092,0-0.186-0.016-0.278-0.052l-190.598-74.764c-0.388-0.152-0.578-0.59-0.424-0.976
					c0.15-0.386,0.594-0.574,0.978-0.424l190.6,74.764c0.386,0.154,0.578,0.59,0.424,0.976
					C1546.548,648.738,1546.262,648.918,1545.962,648.918z"/>
			</g>
			<g style="opacity:0.1264;">
				<path d="M1545.962,648.918c-0.04,0-0.08-0.002-0.124-0.01l-406.766-66.832c-0.412-0.066-0.69-0.454-0.622-0.864
					c0.068-0.41,0.468-0.686,0.868-0.62l406.768,66.832c0.41,0.068,0.688,0.456,0.622,0.866
					C1546.646,648.658,1546.326,648.918,1545.962,648.918z"/>
			</g>
			<g style="opacity:0.6444;">
				<path d="M197.064,662.194L0,692.008v1.52l197.29-29.848c0.412-0.06,0.696-0.444,0.632-0.854
					C197.86,662.414,197.476,662.128,197.064,662.194z"/>
			</g>
			<g style="opacity:0.5079;">
				<path d="M283.604,942.598c-0.322,0-0.62-0.206-0.72-0.53l-86.43-278.908c-0.122-0.398,0.1-0.818,0.5-0.94
					c0.396-0.12,0.82,0.1,0.944,0.496l86.428,278.91c0.124,0.396-0.1,0.816-0.498,0.94
					C283.754,942.588,283.678,942.598,283.604,942.598z"/>
			</g>
			<g style="opacity:0.2607;">
				<path d="M197.228,662.188L0,648.49v1.508l197.124,13.69c0.018,0,0.036,0.002,0.054,0.002c0.392,0,0.724-0.304,0.752-0.7
					C197.958,662.576,197.646,662.216,197.228,662.188z"/>
			</g>
			<g style="opacity:0.2571;">
				<path d="M197.306,662.196L0,628.012v1.526l197.046,34.14c0.044,0.008,0.088,0.012,0.132,0.012c0.36,0,0.678-0.258,0.742-0.624
					C197.992,662.658,197.716,662.268,197.306,662.196z"/>
			</g>
			<g style="opacity:0.4723;">
				<path d="M1545.962,648.918c-0.006,0-0.01,0-0.016,0l-426.202-9.186c-0.418-0.008-0.748-0.352-0.738-0.768
					c0.008-0.414,0.302-0.72,0.772-0.734l426.2,9.184c0.416,0.01,0.748,0.354,0.74,0.77
					C1546.708,648.592,1546.372,648.918,1545.962,648.918z"/>
			</g>
			<g>
				<path d="M861.126,652.328c-0.402,0-0.734-0.312-0.754-0.714c-0.02-0.414,0.3-0.768,0.716-0.788l258.636-12.596
					c0.416-0.016,0.77,0.3,0.79,0.714c0.022,0.414-0.3,0.768-0.716,0.788l-258.634,12.596
					C861.15,652.328,861.138,652.328,861.126,652.328z"/>
			</g>
			<g style="opacity:0.9562;">
				<path d="M387.238,847.824c-0.19,0-0.38-0.07-0.528-0.212L196.65,663.476c-0.3-0.288-0.306-0.766-0.014-1.062
					c0.29-0.296,0.768-0.306,1.068-0.014l190.06,184.134c0.3,0.29,0.304,0.766,0.014,1.064
					C387.63,847.748,387.434,847.824,387.238,847.824z"/>
			</g>
			<g style="opacity:0.9825;">
				<path d="M861.126,652.328c-0.054,0-0.108-0.006-0.164-0.016l-232.276-51.058c-0.408-0.09-0.664-0.49-0.574-0.898
					c0.09-0.404,0.49-0.658,0.9-0.57l232.278,51.056c0.406,0.09,0.662,0.492,0.574,0.898
					C861.786,652.09,861.474,652.328,861.126,652.328z"/>
			</g>
			<g>
				<path d="M245.286,789.25c-0.302,0-0.59-0.184-0.704-0.484l-48.112-125.56c-0.148-0.388,0.048-0.822,0.436-0.972
					c0.39-0.144,0.828,0.048,0.976,0.436l48.11,125.56c0.15,0.388-0.046,0.822-0.436,0.97
					C245.468,789.234,245.376,789.25,245.286,789.25z"/>
			</g>
			<g style="opacity:0.6667;">
				<path d="M1617.012,655.002c-0.022,0-0.044,0-0.064-0.002l-71.05-6.084c-0.416-0.036-0.724-0.4-0.688-0.814
					c0.036-0.412,0.396-0.716,0.818-0.684l71.048,6.084c0.416,0.034,0.724,0.398,0.69,0.812
					C1617.73,654.706,1617.402,655.002,1617.012,655.002z"/>
			</g>
			<g style="opacity:0.5201;">
				<path d="M400.23,886.99c-0.206,0-0.41-0.084-0.56-0.248l-203.054-223.3c-0.28-0.308-0.256-0.784,0.054-1.062
					c0.31-0.278,0.786-0.254,1.066,0.054L400.79,885.732c0.28,0.308,0.256,0.784-0.054,1.064
					C400.592,886.924,400.412,886.99,400.23,886.99z"/>
			</g>
			<g style="opacity:0.871;">
				<path d="M387.238,847.824c-0.19,0-0.382-0.07-0.528-0.212c-0.298-0.292-0.304-0.766-0.014-1.064l241.612-246.554
					c0.294-0.296,0.772-0.302,1.068-0.012c0.298,0.29,0.304,0.766,0.014,1.062L387.778,847.598
					C387.63,847.75,387.434,847.824,387.238,847.824z"/>
			</g>
			<g>
				<path d="M387.238,847.824c-0.098,0-0.196-0.018-0.29-0.056l-141.95-58.576c-0.386-0.158-0.568-0.598-0.408-0.982
					c0.158-0.384,0.602-0.564,0.986-0.406l141.95,58.576c0.386,0.158,0.568,0.598,0.408,0.98
					C387.814,847.65,387.534,847.824,387.238,847.824z"/>
			</g>
			<g style="opacity:0.2452;">
				<path d="M1617.012,655.002c-0.008,0-0.016,0-0.024,0l-497.252-15.27c-0.416-0.012-0.744-0.36-0.73-0.774
					c0.012-0.416,0.38-0.7,0.778-0.728l497.252,15.268c0.416,0.014,0.742,0.36,0.732,0.776
					C1617.754,654.682,1617.418,655.002,1617.012,655.002z"/>
			</g>
			<g>
				<path d="M400.23,886.99c-0.316,0-0.612-0.2-0.716-0.518L386.52,847.31c-0.13-0.396,0.084-0.82,0.48-0.95
					c0.394-0.136,0.822,0.082,0.954,0.478l12.992,39.164c0.132,0.394-0.082,0.82-0.478,0.95
					C400.388,886.978,400.308,886.99,400.23,886.99z"/>
			</g>
			<g style="opacity:0.7388;">
				<path d="M400.23,886.99c-0.166,0-0.332-0.054-0.47-0.166c-0.326-0.258-0.38-0.73-0.12-1.054l228.618-285.72
					c0.264-0.324,0.736-0.376,1.062-0.118c0.326,0.258,0.38,0.732,0.12,1.056L400.82,886.706
					C400.672,886.892,400.452,886.99,400.23,886.99z"/>
			</g>
			<g>
				<path d="M400.23,886.99c-0.138,0-0.278-0.038-0.404-0.118l-154.944-97.738c-0.352-0.224-0.456-0.688-0.234-1.038
					c0.222-0.35,0.688-0.458,1.044-0.234l154.942,97.742c0.352,0.22,0.458,0.684,0.234,1.036
					C400.724,886.866,400.48,886.99,400.23,886.99z"/>
			</g>
			<g style="opacity:0.6123;">
				<path d="M245.286,789.25c-0.076,0-0.154-0.012-0.232-0.036l-180.59-58.112c-0.396-0.128-0.614-0.552-0.486-0.946
					s0.558-0.612,0.95-0.486l180.592,58.112c0.396,0.128,0.614,0.552,0.486,0.946C245.902,789.048,245.606,789.25,245.286,789.25z"
					/>
			</g>
			<g style="opacity:0.7498;">
				<path d="M601.018,981.998c-0.108,0-0.218-0.024-0.324-0.072l-200.788-95.01c-0.376-0.178-0.538-0.626-0.358-1.002
					c0.178-0.372,0.628-0.53,1.006-0.356l200.79,95.008c0.376,0.18,0.536,0.628,0.358,1.004
					C601.572,981.84,601.302,981.998,601.018,981.998z"/>
			</g>
			<g style="opacity:0.2779;">
				<path d="M64.7,729.634L0,729.36v1.504l64.694,0.274h0.002c0.416,0,0.754-0.334,0.756-0.748
					C65.454,729.974,65.116,729.636,64.7,729.634z"/>
			</g>
			<g style="opacity:0.1775;">
				<path d="M65.004,729.7L0,700.96v1.644l64.39,28.47c0.1,0.044,0.204,0.064,0.306,0.064c0.29,0,0.566-0.166,0.69-0.446
					C65.556,730.312,65.384,729.868,65.004,729.7z"/>
			</g>
			<g>
				<path d="M214.87,747.544c-0.028,0-0.054-0.002-0.084-0.006L64.614,731.134c-0.414-0.046-0.714-0.416-0.668-0.83
					c0.046-0.412,0.408-0.728,0.832-0.664l150.174,16.404c0.414,0.046,0.714,0.416,0.668,0.83
					C215.578,747.258,215.25,747.544,214.87,747.544z"/>
			</g>
			<g style="opacity:0.5509;">
				<path d="M601.018,981.998c-0.134,0-0.27-0.036-0.392-0.11l-386.15-234.454c-0.356-0.216-0.468-0.68-0.252-1.034
					c0.218-0.354,0.682-0.466,1.038-0.25l386.15,234.454c0.356,0.218,0.47,0.68,0.252,1.034
					C601.522,981.87,601.272,981.998,601.018,981.998z"/>
			</g>
			<g style="opacity:0.7136;">
				<path d="M601.018,981.998c-0.286,0-0.56-0.164-0.686-0.44c-0.174-0.378-0.006-0.824,0.374-0.996l353.162-159.716
					c0.374-0.172,0.826-0.006,1,0.372c0.172,0.38,0.004,0.824-0.376,0.996l-353.16,159.718
					C601.23,981.976,601.124,981.998,601.018,981.998z"/>
			</g>
			<g style="opacity:0.8321;">
				<path d="M177.408,949.882c-0.274,0-0.538-0.15-0.672-0.41L64.024,730.73c-0.19-0.37-0.044-0.824,0.328-1.012
					c0.374-0.19,0.826-0.044,1.016,0.324L178.08,948.788c0.19,0.368,0.044,0.822-0.328,1.012
					C177.642,949.854,177.524,949.882,177.408,949.882z"/>
			</g>
			<g style="opacity:0.6564;">
				<path d="M365.708,840.134c-0.086,0-0.174-0.016-0.258-0.046L64.438,731.094c-0.392-0.142-0.594-0.574-0.452-0.964
					c0.144-0.39,0.576-0.59,0.968-0.45l301.012,108.994c0.392,0.142,0.594,0.574,0.452,0.964
					C366.306,839.944,366.016,840.134,365.708,840.134z"/>
			</g>
			<g style="opacity:0.4889;">
				<path d="M601.02,981.998c-0.02,0-0.038,0-0.058-0.002L177.35,949.88c-0.416-0.032-0.726-0.394-0.696-0.808
					c0.032-0.416,0.386-0.748,0.81-0.692l423.612,32.116c0.416,0.032,0.728,0.394,0.696,0.808
					C601.742,981.698,601.41,981.998,601.02,981.998z"/>
			</g>
			<g style="opacity:0.8481;">
				<path d="M601.018,981.998c-0.132,0-0.268-0.036-0.39-0.11L365.316,840.024c-0.356-0.214-0.47-0.676-0.254-1.032
					c0.216-0.354,0.678-0.468,1.038-0.254l235.31,141.866c0.358,0.214,0.472,0.676,0.254,1.032
					C601.524,981.868,601.274,981.998,601.018,981.998z"/>
			</g>
			<g>
				<path d="M801.378,986.254c-0.006,0-0.012,0-0.016,0l-200.358-4.256c-0.418-0.01-0.748-0.352-0.74-0.768
					c0.008-0.414,0.368-0.706,0.77-0.736l200.358,4.256c0.418,0.01,0.748,0.354,0.74,0.768
					C802.124,985.928,801.788,986.254,801.378,986.254z"/>
			</g>
			<g>
				<path d="M954.18,822.282c-0.272,0-0.534-0.148-0.668-0.404c-0.194-0.368-0.052-0.822,0.318-1.014l265.528-138.342
					c0.368-0.192,0.824-0.05,1.018,0.318c0.194,0.368,0.05,0.822-0.32,1.014L954.53,822.196
					C954.418,822.254,954.298,822.282,954.18,822.282z"/>
			</g>
			<g>
				<path d="M177.408,949.882c-0.044,0-0.09-0.004-0.136-0.012c-0.41-0.076-0.682-0.468-0.606-0.878l37.462-202.336
					c0.074-0.408,0.468-0.68,0.878-0.604c0.41,0.076,0.682,0.468,0.606,0.876L178.15,949.266
					C178.084,949.628,177.766,949.882,177.408,949.882z"/>
			</g>
			<g>
				<path d="M365.706,840.134c-0.134,0-0.27-0.038-0.394-0.112l-150.838-92.59c-0.356-0.218-0.466-0.682-0.248-1.036
					c0.218-0.352,0.682-0.462,1.04-0.244l150.838,92.59c0.356,0.218,0.466,0.68,0.246,1.034
					C366.208,840.006,365.96,840.134,365.706,840.134z"/>
			</g>
			<g style="opacity:0.3787;">
				<path d="M801.378,986.254c-0.234,0-0.464-0.108-0.612-0.31c-0.246-0.336-0.17-0.806,0.168-1.05l418.328-302.314
					c0.338-0.24,0.81-0.172,1.056,0.168c0.244,0.334,0.17,0.804-0.166,1.05L801.82,986.112
					C801.686,986.208,801.532,986.254,801.378,986.254z"/>
			</g>
			<g>
				<path d="M801.378,986.254c-0.184,0-0.37-0.066-0.514-0.202c-0.306-0.282-0.324-0.758-0.04-1.06l152.802-163.974
					c0.284-0.304,0.764-0.32,1.068-0.04c0.304,0.284,0.322,0.758,0.04,1.062L801.93,986.014
					C801.782,986.174,801.58,986.254,801.378,986.254z"/>
			</g>
			<g>
				<path d="M177.408,949.882c-0.258,0-0.512-0.134-0.652-0.372c-0.21-0.358-0.09-0.818,0.27-1.028l188.3-109.75
					c0.36-0.212,0.822-0.088,1.034,0.27c0.21,0.358,0.09,0.818-0.27,1.028l-188.3,109.748
					C177.67,949.848,177.538,949.882,177.408,949.882z"/>
			</g>
			<path d="M970.128,192.908c2.688,0.458,4.492,2.998,4.032,5.674c-0.46,2.676-3.012,4.474-5.7,4.014
				c-2.688-0.458-4.492-2.998-4.032-5.674C964.888,194.246,967.44,192.448,970.128,192.908z"/>
			<path d="M605.332,245.044c2.952,0.504,4.934,3.294,4.428,6.234c-0.506,2.938-3.308,4.912-6.26,4.408
				c-2.952-0.504-4.934-3.294-4.428-6.232C599.578,246.514,602.38,244.54,605.332,245.044z"/>
			<path d="M1081.088,406.716c3.126,0.534,5.226,3.49,4.69,6.602c-0.536,3.114-3.504,5.204-6.632,4.672
				c-3.126-0.534-5.226-3.49-4.69-6.604C1074.992,408.274,1077.96,406.182,1081.088,406.716z"/>
			<path d="M908.42,135.628c4.088,0.696,6.834,4.562,6.132,8.63c-0.7,4.07-4.58,6.804-8.668,6.106
				c-4.086-0.698-6.832-4.562-6.132-8.632C900.452,137.664,904.334,134.93,908.42,135.628z"/>
			<path d="M412.01,231.09c2.688,0.458,4.494,3,4.034,5.676c-0.462,2.676-3.014,4.474-5.702,4.016
				c-2.688-0.46-4.494-3.002-4.032-5.678C406.77,232.428,409.322,230.63,412.01,231.09z"/>
			<path d="M309.844,12.516c3.75,0.64,6.27,4.188,5.626,7.922c-0.642,3.734-4.204,6.244-7.954,5.604
				c-3.752-0.64-6.272-4.188-5.628-7.922C302.53,14.386,306.092,11.876,309.844,12.516z"/>
			<path d="M952.528,312.338c2.098,0.36,3.506,2.342,3.148,4.432c-0.36,2.088-2.352,3.492-4.45,3.134
				c-2.098-0.358-3.508-2.342-3.148-4.432C948.438,313.384,950.43,311.98,952.528,312.338z"/>
			<path d="M1030.436,632.2c3.858,0.658,6.448,4.304,5.788,8.146c-0.662,3.84-4.324,6.42-8.182,5.76
				c-3.856-0.658-6.448-4.304-5.786-8.144C1022.916,634.12,1026.58,631.542,1030.436,632.2z"/>
			<path d="M995.24,309.668c2.788,0.476,4.66,3.112,4.182,5.888c-0.478,2.776-3.124,4.642-5.912,4.166
				c-2.788-0.476-4.662-3.112-4.184-5.888C989.804,311.058,992.452,309.192,995.24,309.668z"/>
			<path d="M1077.48,512.512c2.996,0.512,5.006,3.344,4.494,6.326c-0.514,2.982-3.358,4.984-6.354,4.474
				c-2.994-0.512-5.006-3.344-4.494-6.326C1071.64,514.004,1074.484,512,1077.48,512.512z"/>
			<path d="M410.67,420.042c2.456,0.42,4.104,2.74,3.684,5.184c-0.422,2.444-2.752,4.086-5.208,3.668
				c-2.454-0.42-4.104-2.74-3.682-5.184C405.884,421.266,408.216,419.624,410.67,420.042z"/>
			<path d="M16.644,102.766c3.948,0.674,6.6,4.408,5.922,8.338c-0.676,3.932-4.426,6.572-8.374,5.898
				c-3.948-0.674-6.598-4.406-5.922-8.338C8.946,104.734,12.696,102.092,16.644,102.766z"/>
			<path d="M160.582,372.928c4.108,0.702,6.866,4.586,6.162,8.676c-0.704,4.09-4.604,6.838-8.712,6.136
				c-4.108-0.7-6.868-4.584-6.164-8.674C152.572,374.976,156.474,372.228,160.582,372.928z"/>
			<path d="M1097.94,407.328c2.774,0.474,4.638,3.096,4.162,5.86c-0.474,2.762-3.11,4.618-5.884,4.144
				c-2.774-0.474-4.638-3.096-4.164-5.86C1092.53,408.71,1095.166,406.854,1097.94,407.328z"/>
			<path d="M952.706,242.396c4.474,0.764,7.478,4.992,6.71,9.446c-0.766,4.454-5.012,7.444-9.486,6.682
				c-4.472-0.764-7.476-4.992-6.71-9.446C943.988,244.624,948.234,241.634,952.706,242.396z"/>
			<path d="M940.688,209.294c3.044,0.52,5.088,3.398,4.566,6.428c-0.522,3.03-3.412,5.066-6.454,4.546
				c-3.044-0.52-5.088-3.398-4.568-6.428C934.754,210.81,937.644,208.774,940.688,209.294z"/>
			<path d="M276.536,497.782c3.326,0.568,5.562,3.712,4.99,7.026c-0.57,3.312-3.728,5.536-7.056,4.968
				c-3.326-0.568-5.56-3.712-4.99-7.024C270.05,499.438,273.21,497.214,276.536,497.782z"/>
			<path d="M1128.13,478.42c2.202,0.376,3.68,2.456,3.302,4.648c-0.376,2.192-2.468,3.666-4.668,3.29
				c-2.202-0.376-3.682-2.458-3.304-4.65C1123.838,479.516,1125.928,478.044,1128.13,478.42z"/>
			<path d="M856.472,373.064c5.25,0.896,8.778,5.862,7.878,11.09c-0.9,5.228-5.886,8.74-11.138,7.844
				c-5.252-0.896-8.78-5.86-7.88-11.09C846.232,375.68,851.22,372.168,856.472,373.064z"/>
			<path d="M316.412,415.296c5.04,0.86,8.426,5.626,7.562,10.642c-0.864,5.018-5.65,8.388-10.69,7.528
				c-5.038-0.86-8.424-5.624-7.56-10.642C306.588,417.806,311.374,414.436,316.412,415.296z"/>
			<path d="M648.69,449.224c3.29,0.562,5.498,3.67,4.934,6.944c-0.564,3.274-3.686,5.474-6.974,4.912
				c-3.288-0.56-5.498-3.67-4.934-6.944C642.28,450.862,645.402,448.664,648.69,449.224z"/>
			<path d="M864.356,194.568c3.158,0.538,5.28,3.526,4.738,6.67c-0.54,3.146-3.54,5.258-6.7,4.72
				c-3.158-0.54-5.28-3.526-4.738-6.672C858.196,196.14,861.196,194.028,864.356,194.568z"/>
			<path d="M989.684,304.874c2.536,0.434,4.238,2.83,3.804,5.354c-0.434,2.524-2.842,4.22-5.378,3.788
				c-2.534-0.434-4.238-2.83-3.804-5.354C984.742,306.138,987.148,304.442,989.684,304.874z"/>
			<path d="M154.42,287.188c4.046,0.692,6.764,4.516,6.07,8.544c-0.692,4.028-4.534,6.734-8.58,6.044s-6.764-4.516-6.07-8.544
				C146.534,289.204,150.376,286.498,154.42,287.188z"/>
			<path d="M810.868,313.732c4.632,0.79,7.744,5.17,6.95,9.782s-5.194,7.71-9.826,6.92c-4.632-0.792-7.744-5.17-6.95-9.784
				C801.836,316.038,806.236,312.94,810.868,313.732z"/>
			<path d="M577.326,497.85c2.304,0.392,3.852,2.57,3.456,4.864c-0.394,2.294-2.582,3.834-4.886,3.442
				c-2.302-0.394-3.85-2.572-3.456-4.866C572.836,498.996,575.022,497.456,577.326,497.85z"/>
			<path d="M1091.762,568.134c2.6,0.444,4.346,2.902,3.9,5.492c-0.446,2.588-2.914,4.328-5.514,3.884
				c-2.6-0.444-4.346-2.902-3.9-5.492C1086.692,569.43,1089.162,567.692,1091.762,568.134z"/>
			<path d="M707.68,253.856c4.5,0.768,7.522,5.024,6.75,9.504c-0.77,4.482-5.044,7.49-9.544,6.722s-7.524-5.022-6.752-9.502
				C698.906,256.098,703.178,253.088,707.68,253.856z"/>
			<path d="M298.384,480.292c2.624,0.448,4.386,2.928,3.936,5.542c-0.45,2.612-2.942,4.366-5.566,3.92
				c-2.624-0.448-4.386-2.93-3.936-5.542C293.268,481.598,295.76,479.844,298.384,480.292z"/>
			<path d="M1044.572,193.52c3.782,0.646,6.322,4.222,5.674,7.988c-0.648,3.766-4.24,6.296-8.022,5.65
				c-3.782-0.646-6.324-4.222-5.676-7.988C1037.198,195.404,1040.788,192.876,1044.572,193.52z"/>
			<path d="M160.53,254.18c2.902,0.494,4.852,3.238,4.354,6.128c-0.498,2.89-3.254,4.83-6.156,4.336
				c-2.902-0.496-4.85-3.24-4.354-6.13C154.872,255.626,157.628,253.684,160.53,254.18z"/>
			<path d="M1190.964,364.244c5.308,0.908,8.876,5.928,7.966,11.214c-0.91,5.286-5.952,8.838-11.262,7.932
				c-5.31-0.906-8.876-5.926-7.966-11.214C1180.612,366.89,1185.654,363.338,1190.964,364.244z"/>
			<path d="M1216.312,468.264c4.894,0.836,8.182,5.462,7.342,10.334c-0.838,4.874-5.484,8.146-10.378,7.31
				c-4.894-0.834-8.182-5.462-7.342-10.334C1206.772,470.702,1211.42,467.43,1216.312,468.264z"/>
			<path d="M107.036,221.294c4.384,0.748,7.33,4.894,6.578,9.26s-4.916,7.3-9.3,6.552c-4.386-0.748-7.332-4.896-6.58-9.262
				C98.486,223.478,102.65,220.546,107.036,221.294z"/>
			<path d="M1152.676,431.034c3.93,0.67,6.572,4.388,5.898,8.302c-0.674,3.914-4.408,6.542-8.338,5.872
				c-3.932-0.672-6.572-4.388-5.898-8.302C1145.012,432.992,1148.744,430.362,1152.676,431.034z"/>
			<path d="M742.108,234.666c5.152,0.878,8.614,5.75,7.73,10.882c-0.882,5.13-5.776,8.576-10.928,7.696
				c-5.154-0.878-8.616-5.75-7.732-10.882C732.062,237.232,736.954,233.786,742.108,234.666z"/>
			<path d="M1198.014,565.748c3.504,0.598,5.856,3.91,5.256,7.4c-0.6,3.488-3.928,5.83-7.43,5.234
				c-3.504-0.598-5.858-3.912-5.258-7.4S1194.51,565.15,1198.014,565.748z"/>
			<path d="M544.1,599.964c3.108,0.53,5.194,3.468,4.662,6.562c-0.532,3.094-3.484,5.174-6.59,4.642
				c-3.108-0.53-5.196-3.468-4.664-6.562C538.042,601.512,540.992,599.434,544.1,599.964z"/>
			<path d="M1227.586,549.19c2.426,0.414,4.054,2.708,3.64,5.122c-0.416,2.416-2.72,4.038-5.146,3.624
				c-2.426-0.414-4.056-2.706-3.64-5.122C1222.856,550.398,1225.16,548.776,1227.586,549.19z"/>
			<path d="M904.992,324.698c2.548,0.436,4.26,2.846,3.824,5.384c-0.438,2.538-2.858,4.242-5.406,3.806
				c-2.55-0.434-4.262-2.844-3.824-5.382C900.022,325.968,902.442,324.264,904.992,324.698z"/>
			<path d="M504.488,623.212c3.308,0.566,5.53,3.692,4.964,6.986c-0.568,3.294-3.708,5.506-7.016,4.942
				c-3.308-0.566-5.53-3.692-4.962-6.986C498.04,624.86,501.182,622.648,504.488,623.212z"/>
			<path d="M196.972,462.676c6.068,1.036,10.146,6.774,9.104,12.818c-1.04,6.042-6.802,10.1-12.87,9.064
				c-6.07-1.036-10.146-6.774-9.106-12.816C185.14,465.7,190.904,461.642,196.972,462.676z"/>
			<path d="M827.252,368.206c3.178,0.542,5.314,3.548,4.77,6.714c-0.546,3.166-3.564,5.292-6.744,4.75
				c-3.18-0.542-5.314-3.548-4.77-6.714C821.052,369.79,824.072,367.664,827.252,368.206z"/>
			<path d="M1218.174,434.986c5.178,0.884,8.656,5.78,7.77,10.936c-0.888,5.154-5.806,8.618-10.984,7.734
				c-5.178-0.884-8.656-5.78-7.768-10.936C1208.078,437.566,1212.996,434.102,1218.174,434.986z"/>
			<path d="M877.692,141.086c2.802,0.478,4.684,3.128,4.204,5.918c-0.48,2.79-3.142,4.664-5.944,4.186s-4.684-3.128-4.204-5.918
				C872.228,142.482,874.89,140.608,877.692,141.086z"/>
			<path d="M656.774,680.162c6.196,1.056,10.358,6.914,9.296,13.084c-1.062,6.168-6.946,10.312-13.142,9.256
				c-6.194-1.058-10.356-6.916-9.294-13.086C644.696,683.248,650.578,679.104,656.774,680.162z"/>
			<path d="M1074.224,344.034c3.746,0.638,6.262,4.182,5.62,7.912c-0.642,3.73-4.2,6.236-7.946,5.596
				c-3.748-0.638-6.264-4.182-5.622-7.912C1066.918,345.9,1070.476,343.394,1074.224,344.034z"/>
			<path d="M1226.518,428.476c3.83,0.652,6.404,4.274,5.746,8.088c-0.656,3.812-4.292,6.374-8.122,5.72
				c-3.83-0.652-6.402-4.274-5.746-8.088C1219.052,430.384,1222.688,427.822,1226.518,428.476z"/>
			<path d="M609.728,862.956c3.322,0.568,5.554,3.708,4.984,7.016c-0.568,3.308-3.724,5.53-7.046,4.962
				c-3.322-0.566-5.552-3.708-4.984-7.016C603.252,864.612,606.406,862.39,609.728,862.956z"/>
			<path d="M769.982,232.142c4.772,0.816,7.978,5.328,7.16,10.08c-0.818,4.752-5.35,7.944-10.122,7.13
				c-4.774-0.814-7.98-5.326-7.162-10.08C760.676,234.52,765.208,231.328,769.982,232.142z"/>
			<path d="M342.026,621.952c3.392,0.58,5.672,3.788,5.09,7.166s-3.804,5.648-7.196,5.068c-3.392-0.578-5.672-3.786-5.09-7.166
				C335.412,623.642,338.634,621.374,342.026,621.952z"/>
			<path d="M880.278,351.082c5.366,0.916,8.97,5.99,8.05,11.332s-6.016,8.93-11.38,8.016c-5.366-0.916-8.97-5.99-8.05-11.332
				C869.816,353.756,874.912,350.168,880.278,351.082z"/>
			<path d="M519.072,737.598c3.316,0.566,5.544,3.704,4.976,7.006c-0.568,3.302-3.718,5.522-7.036,4.956
				c-3.316-0.566-5.544-3.704-4.976-7.006S515.754,737.032,519.072,737.598z"/>
			<path d="M1356.63,566.042c4.084,0.696,6.826,4.556,6.126,8.622c-0.7,4.066-4.578,6.796-8.66,6.1
				c-4.084-0.698-6.826-4.558-6.126-8.624C1348.67,568.076,1352.548,565.344,1356.63,566.042z"/>
			<path d="M1139.99,576.724c2.558,0.436,4.276,2.854,3.836,5.4c-0.438,2.548-2.866,4.258-5.424,3.822
				c-2.558-0.436-4.276-2.856-3.838-5.402C1135.004,577.998,1137.432,576.286,1139.99,576.724z"/>
			<path d="M302.828,815.96c6.378,1.088,10.662,7.12,9.568,13.47c-1.092,6.35-7.15,10.616-13.528,9.528
				c-6.378-1.09-10.662-7.12-9.568-13.47C290.392,819.138,296.45,814.872,302.828,815.96z"/>
			<path d="M285.622,930.124c6.504,1.11,10.872,7.258,9.756,13.732c-1.114,6.474-7.288,10.824-13.792,9.714
				c-6.502-1.11-10.87-7.258-9.754-13.732C272.946,933.364,279.12,929.014,285.622,930.124z"/>
			<path d="M1547.458,639.474c4.822,0.822,8.06,5.382,7.234,10.182c-0.826,4.802-5.404,8.026-10.226,7.204
				c-4.822-0.824-8.06-5.382-7.234-10.184C1538.058,641.876,1542.636,638.65,1547.458,639.474z"/>
			<path d="M198.836,653.302c5.344,0.912,8.934,5.966,8.018,11.288c-0.916,5.32-5.992,8.896-11.336,7.984
				c-5.344-0.912-8.934-5.966-8.018-11.288C188.416,655.964,193.49,652.39,198.836,653.302z"/>
			<path d="M862.706,642.396c5.092,0.87,8.514,5.684,7.64,10.756c-0.872,5.07-5.708,8.476-10.8,7.606
				c-5.092-0.868-8.514-5.684-7.64-10.754C852.778,644.934,857.614,641.528,862.706,642.396z"/>
			<path d="M1120.766,633.14c3.24,0.554,5.416,3.616,4.862,6.842c-0.556,3.226-3.632,5.392-6.872,4.84
				c-3.24-0.554-5.416-3.616-4.862-6.842C1114.45,634.754,1117.526,632.588,1120.766,633.14z"/>
			<path d="M388.304,840.884c3.432,0.586,5.738,3.832,5.15,7.25c-0.588,3.418-3.848,5.714-7.282,5.128
				c-3.432-0.586-5.738-3.832-5.15-7.25C381.61,842.594,384.87,840.298,388.304,840.884z"/>
			<path d="M629.692,595.622c2.716,0.464,4.542,3.032,4.076,5.738c-0.466,2.704-3.046,4.522-5.762,4.058
				c-2.718-0.464-4.542-3.032-4.076-5.738C624.394,596.976,626.974,595.158,629.692,595.622z"/>
			<path d="M247.202,777.37c6.172,1.054,10.318,6.89,9.26,13.034c-1.058,6.146-6.918,10.274-13.09,9.22
				c-6.172-1.052-10.318-6.888-9.26-13.034C235.17,780.446,241.03,776.318,247.202,777.37z"/>
			<path d="M401.198,880.612c3.122,0.532,5.218,3.484,4.682,6.59c-0.534,3.108-3.498,5.194-6.618,4.662
				c-3.122-0.532-5.218-3.482-4.682-6.59C395.114,882.166,398.078,880.08,401.198,880.612z"/>
			<path d="M1618.126,647.78c3.588,0.612,6,4.006,5.384,7.58c-0.614,3.574-4.024,5.974-7.612,5.362c-3.59-0.612-6-4.006-5.386-7.58
				C1611.128,649.568,1614.536,647.168,1618.126,647.78z"/>
			<path d="M66.62,719.214c6.196,1.058,10.358,6.918,9.296,13.086c-1.062,6.17-6.946,10.316-13.142,9.258
				c-6.196-1.058-10.36-6.916-9.298-13.086C54.538,722.302,60.424,718.158,66.62,719.214z"/>
			<path d="M603.152,968.858c6.872,1.172,11.488,7.67,10.31,14.512c-1.178,6.842-7.704,11.438-14.576,10.266
				c-6.872-1.174-11.488-7.672-10.31-14.514C589.754,972.28,596.28,967.684,603.152,968.858z"/>
			<path d="M217.03,734.242c6.962,1.188,11.638,7.77,10.444,14.7c-1.192,6.932-7.804,11.588-14.764,10.4
				c-6.962-1.188-11.638-7.77-10.444-14.702C203.458,737.708,210.068,733.054,217.03,734.242z"/>
			<path d="M1221.11,675.038c4.52,0.772,7.556,5.046,6.782,9.548c-0.774,4.5-5.068,7.524-9.588,6.752
				c-4.522-0.772-7.558-5.046-6.782-9.546C1212.296,677.29,1216.588,674.266,1221.11,675.038z"/>
			<path d="M955.826,811.966c5.304,0.906,8.868,5.922,7.958,11.202c-0.91,5.282-5.946,8.83-11.25,7.924
				c-5.306-0.904-8.868-5.92-7.958-11.202C945.484,814.61,950.522,811.062,955.826,811.966z"/>
			<path d="M178.508,942.742c3.544,0.604,5.924,3.954,5.316,7.484c-0.608,3.528-3.972,5.898-7.516,5.294
				c-3.544-0.606-5.924-3.956-5.316-7.484C171.598,944.506,174.964,942.136,178.508,942.742z"/>
			<path d="M366.714,833.538c3.242,0.552,5.42,3.618,4.864,6.844c-0.556,3.228-3.634,5.396-6.876,4.844
				c-3.242-0.554-5.418-3.618-4.864-6.846C360.394,835.152,363.472,832.984,366.714,833.538z"/>
			<path d="M802.398,979.57c3.29,0.562,5.502,3.672,4.938,6.95c-0.564,3.276-3.69,5.476-6.98,4.916
				c-3.292-0.562-5.502-3.674-4.938-6.95C795.982,981.21,799.108,979.008,802.398,979.57z"/>
		</g>
		<g>
			<g>
				<path d="M1436.328,896.242c-0.278,0-0.546-0.156-0.678-0.422c-0.182-0.372-0.028-0.822,0.346-1.006l124.552-60.83
					c0.37-0.182,0.826-0.028,1.01,0.344c0.184,0.374,0.03,0.824-0.346,1.006l-124.55,60.832
					C1436.556,896.216,1436.44,896.242,1436.328,896.242z"/>
			</g>
			<g style="opacity:0.6142;">
				<path d="M2400,1312.664l-6.404,2.272c-0.394,0.138-0.598,0.57-0.458,0.962c0.11,0.306,0.4,0.498,0.712,0.498
					c0.084,0,0.168-0.014,0.252-0.042l5.898-2.092V1312.664z"/>
			</g>
			<g>
				<path d="M2393.85,1316.396c-0.018,0-0.038,0-0.058-0.002l-193.242-14.428c-0.414-0.032-0.726-0.392-0.696-0.806
					c0.03-0.412,0.33-0.75,0.81-0.694l193.242,14.428c0.416,0.032,0.728,0.392,0.696,0.808
					C2394.572,1316.094,2394.24,1316.396,2393.85,1316.396z"/>
			</g>
			<g style="opacity:0.3242;">
				<path d="M2393.85,1316.396c-0.164,0-0.33-0.052-0.466-0.16l-295.738-231.086c-0.328-0.256-0.386-0.728-0.128-1.054
					c0.258-0.33,0.734-0.382,1.06-0.128l295.738,231.086c0.328,0.256,0.384,0.728,0.126,1.054
					C2394.294,1316.298,2394.074,1316.396,2393.85,1316.396z"/>
			</g>
			<g style="opacity:0.3971;">
				<path d="M2400,1316.044l-6.01-1.138c-0.438-0.084-0.806,0.192-0.882,0.598c-0.078,0.408,0.19,0.802,0.6,0.878l6.292,1.192
					V1316.044z"/>
			</g>
			<g style="opacity:0.9748;">
				<path d="M2200.608,1301.968c-0.284,0-0.554-0.158-0.682-0.43L2097.43,1084.88c-0.18-0.376-0.016-0.824,0.36-1
					s0.828-0.018,1.004,0.358l102.496,216.656c0.178,0.376,0.016,0.826-0.36,1.002
					C2200.826,1301.944,2200.716,1301.968,2200.608,1301.968z"/>
			</g>
			<g style="opacity:0.4219;">
				<path d="M2199.34,1490.5c-0.206,0-0.414-0.084-0.563-0.25c-0.278-0.308-0.252-0.784,0.056-1.062l194.51-174.104
					c0.31-0.278,0.786-0.25,1.068,0.058c0.276,0.308,0.252,0.784-0.058,1.062l-194.51,174.104
					C2199.7,1490.436,2199.52,1490.5,2199.34,1490.5z"/>
			</g>
			<g style="opacity:0.9167;">
				<path d="M2199.34,1490.5c-0.002,0-0.004,0-0.006,0c-0.418-0.002-0.752-0.344-0.75-0.758l1.268-188.532
					c0.002-0.412,0.34-0.746,0.756-0.746c0.002,0,0.004,0,0.006,0c0.416,0.002,0.75,0.342,0.748,0.758l-1.268,188.532
					C2200.092,1490.166,2199.754,1490.5,2199.34,1490.5z"/>
			</g>
			<g style="opacity:0.0188;">
				<path d="M1436.328,896.242c-0.158,0-0.32-0.05-0.456-0.154l-99.958-75.518c-0.332-0.252-0.398-0.722-0.146-1.052
					c0.256-0.332,0.728-0.396,1.058-0.146l99.96,75.518c0.332,0.252,0.396,0.724,0.144,1.054
					C1436.782,896.14,1436.556,896.242,1436.328,896.242z"/>
			</g>
			<g style="opacity:0.01;">
				<path d="M1804.85,1175.916c-0.236,0-0.468-0.11-0.616-0.316l-243.97-340.504c-0.242-0.338-0.162-0.808,0.178-1.048
					c0.342-0.244,0.812-0.164,1.054,0.174l243.97,340.504c0.242,0.34,0.162,0.808-0.178,1.05
					C1805.154,1175.87,1805.002,1175.916,1804.85,1175.916z"/>
			</g>
			<g style="opacity:0.4773;">
				<path d="M1948.74,1446.366c-0.262,0-0.516-0.134-0.656-0.376c-0.208-0.36-0.082-0.82,0.278-1.028l251.868-144.398
					c0.366-0.21,0.826-0.082,1.032,0.276c0.208,0.36,0.084,0.82-0.276,1.028l-251.87,144.398
					C1948.996,1446.334,1948.866,1446.366,1948.74,1446.366z"/>
			</g>
			<g style="opacity:0.5244;">
				<path d="M1804.85,1175.916c-0.322,0-0.622-0.208-0.722-0.53c-0.124-0.396,0.1-0.818,0.498-0.94l293.262-90.604
					c0.398-0.122,0.822,0.1,0.946,0.494c0.124,0.398-0.1,0.818-0.498,0.942l-293.262,90.604
					C1805,1175.906,1804.924,1175.916,1804.85,1175.916z"/>
			</g>
			<g style="opacity:0.1666;">
				<path d="M1948.74,1446.366c-0.098,0-0.194-0.018-0.288-0.056c-0.386-0.16-0.57-0.598-0.41-0.982l149.372-361.054
					c0.162-0.386,0.604-0.566,0.984-0.41c0.386,0.16,0.572,0.598,0.412,0.982L1949.438,1445.9
					C1949.318,1446.192,1949.036,1446.366,1948.74,1446.366z"/>
			</g>
			<g style="opacity:0.4045;">
				<path d="M1560.88,835.41c-0.016,0-0.034,0-0.05,0l-224.51-14.688c-0.416-0.028-0.732-0.386-0.704-0.8
					c0.026-0.412,0.386-0.744,0.802-0.7l224.512,14.688c0.416,0.026,0.73,0.384,0.704,0.798
					C1561.608,835.106,1561.276,835.41,1560.88,835.41z"/>
			</g>
			<g style="opacity:0.4626;">
				<path d="M1560.88,835.41c-0.086,0-0.176-0.014-0.26-0.046l-103.698-37.828c-0.392-0.144-0.594-0.574-0.452-0.964
					c0.144-0.392,0.584-0.59,0.97-0.448l103.7,37.83c0.39,0.142,0.594,0.574,0.45,0.964
					C1561.478,835.222,1561.188,835.41,1560.88,835.41z"/>
			</g>
			<g style="opacity:0.9237;">
				<path d="M2199.34,1490.5c-0.044,0-0.088-0.004-0.132-0.012l-250.6-44.134c-0.412-0.072-0.684-0.462-0.612-0.87
					s0.458-0.676,0.874-0.61l250.602,44.134c0.41,0.072,0.684,0.462,0.61,0.87C2200.018,1490.242,2199.7,1490.5,2199.34,1490.5z"/>
			</g>
			<g style="opacity:0.7162;">
				<path d="M1948.74,1446.366c-0.27,0-0.532-0.144-0.668-0.4l-143.888-270.45c-0.198-0.368-0.056-0.822,0.312-1.016
					c0.37-0.196,0.824-0.054,1.02,0.312l143.89,270.45c0.196,0.368,0.054,0.822-0.312,1.016
					C1948.98,1446.338,1948.86,1446.366,1948.74,1446.366z"/>
			</g>
			<g style="opacity:0.8982;">
				<path d="M2064.936,1569.81c-0.258,0-0.51-0.13-0.65-0.368c-0.212-0.358-0.094-0.818,0.264-1.028l134.404-79.312
					c0.362-0.212,0.824-0.096,1.034,0.262c0.212,0.358,0.094,0.818-0.264,1.03l-134.402,79.312
					C2065.2,1569.778,2065.068,1569.81,2064.936,1569.81z"/>
			</g>
			<g style="opacity:0.9949;">
				<path d="M2064.936,1569.81c-0.2,0-0.404-0.08-0.55-0.236l-116.198-123.444c-0.284-0.304-0.268-0.78,0.034-1.064
					c0.302-0.286,0.784-0.268,1.068,0.034l116.196,123.444c0.286,0.304,0.27,0.78-0.034,1.064
					C2065.308,1569.744,2065.12,1569.81,2064.936,1569.81z"/>
			</g>
			<g style="opacity:0.8116;">
				<path d="M2199.34,1490.5L2199.34,1490.5l-95.06-0.086c-0.416,0-0.756-0.338-0.756-0.752c0-0.416,0.34-0.752,0.756-0.752l0,0
					l95.06,0.086c0.416,0,0.754,0.336,0.754,0.752C2200.094,1490.162,2199.756,1490.5,2199.34,1490.5z"/>
			</g>
			<g style="opacity:0.8419;">
				<path d="M2104.28,1490.414c-0.068,0-0.138-0.01-0.206-0.03l-155.542-44.048c-0.4-0.112-0.632-0.528-0.518-0.928
					c0.114-0.398,0.532-0.628,0.932-0.516l155.54,44.046c0.402,0.114,0.635,0.53,0.52,0.928
					C2104.912,1490.198,2104.608,1490.414,2104.28,1490.414z"/>
			</g>
			<g style="opacity:0.331;">
				<path d="M1771.642,1478.774c-0.026,0-0.052-0.002-0.082-0.004c-0.414-0.044-0.714-0.416-0.668-0.83l33.208-302.858
					c0.044-0.41,0.39-0.7,0.832-0.666c0.416,0.044,0.714,0.416,0.67,0.83l-33.208,302.858
					C1772.35,1478.488,1772.024,1478.774,1771.642,1478.774z"/>
			</g>
			<g style="opacity:0.7553;">
				<path d="M1771.642,1478.774c-0.358,0-0.676-0.252-0.742-0.616c-0.076-0.408,0.196-0.8,0.606-0.876l177.098-32.408
					c0.4-0.068,0.804,0.196,0.878,0.606c0.076,0.406-0.196,0.798-0.608,0.874l-177.096,32.408
					C1771.732,1478.77,1771.688,1478.774,1771.642,1478.774z"/>
			</g>
			<g>
				<path d="M1336.37,820.724c-0.356,0-0.672-0.25-0.742-0.61c-0.078-0.408,0.19-0.802,0.598-0.88l120.812-23.142
					c0.424-0.078,0.806,0.188,0.884,0.596c0.078,0.408-0.188,0.802-0.598,0.88l-120.81,23.142
					C1336.464,820.72,1336.416,820.724,1336.37,820.724z"/>
			</g>
			<g style="opacity:0.4934;">
				<path d="M1716.176,1215.054c-0.288,0-0.566-0.166-0.69-0.446c-0.168-0.38,0.002-0.824,0.384-0.992l88.674-39.14
					c0.384-0.166,0.83,0.004,0.996,0.382c0.17,0.38-0.002,0.824-0.384,0.992l-88.672,39.14
					C1716.384,1215.032,1716.28,1215.054,1716.176,1215.054z"/>
			</g>
			<g>
				<path d="M2064.936,1569.81c-0.112,0-0.226-0.024-0.334-0.078c-0.374-0.182-0.528-0.634-0.342-1.006l39.344-79.398
					c0.186-0.372,0.638-0.52,1.01-0.34c0.374,0.182,0.528,0.634,0.342,1.006l-39.344,79.398
					C2065.48,1569.656,2065.212,1569.81,2064.936,1569.81z"/>
			</g>
			<g style="opacity:0.7129;">
				<path d="M2064.936,1569.81c-0.076,0-0.15-0.01-0.224-0.032l-293.294-91.036c-0.398-0.126-0.622-0.548-0.498-0.942
					c0.126-0.398,0.552-0.608,0.946-0.496l293.294,91.036c0.398,0.126,0.622,0.546,0.498,0.942
					C2065.556,1569.606,2065.258,1569.81,2064.936,1569.81z"/>
			</g>
			<g style="opacity:0.538;">
				<path d="M1420.692,924.454c-0.22,0-0.44-0.096-0.586-0.278l-84.322-103.732c-0.264-0.322-0.212-0.796,0.11-1.058
					c0.326-0.262,0.802-0.212,1.062,0.112l84.322,103.73c0.262,0.324,0.212,0.798-0.11,1.058
					C1421.028,924.4,1420.858,924.454,1420.692,924.454z"/>
			</g>
			<g style="opacity:0.7026;">
				<path d="M1420.692,924.454c-0.07,0-0.138-0.01-0.208-0.028c-0.402-0.114-0.634-0.532-0.518-0.93l36.49-126.872
					c0.114-0.4,0.524-0.632,0.934-0.516c0.4,0.114,0.632,0.53,0.516,0.928l-36.49,126.874
					C1421.322,924.24,1421.02,924.454,1420.692,924.454z"/>
			</g>
			<g style="opacity:0.8439;">
				<path d="M1771.642,1478.774c-0.35,0-0.664-0.242-0.738-0.596l-55.466-263.72c-0.084-0.408,0.176-0.806,0.584-0.892
					c0.42-0.076,0.808,0.176,0.894,0.582l55.466,263.72c0.084,0.408-0.178,0.804-0.584,0.89
					C1771.744,1478.768,1771.694,1478.774,1771.642,1478.774z"/>
			</g>
			<g style="opacity:0.7282;">
				<path d="M2104.28,1490.414c-0.168,0-0.334-0.056-0.474-0.168l-161.684-129.898c-0.324-0.262-0.374-0.734-0.114-1.058
					c0.264-0.322,0.738-0.372,1.062-0.114l161.684,129.9c0.324,0.26,0.376,0.734,0.114,1.058
					C2104.718,1490.318,2104.5,1490.414,2104.28,1490.414z"/>
			</g>
			<g style="opacity:0.7669;">
				<path d="M1771.642,1478.774c-0.238,0-0.474-0.114-0.618-0.322c-0.238-0.342-0.154-0.81,0.188-1.046l170.954-118.26
					c0.342-0.24,0.814-0.154,1.05,0.188c0.238,0.34,0.154,0.808-0.188,1.044l-170.954,118.262
					C1771.942,1478.732,1771.792,1478.774,1771.642,1478.774z"/>
			</g>
			<g style="opacity:0.7921;">
				<path d="M1942.596,1360.514c-0.14,0-0.282-0.04-0.408-0.12l-226.42-145.46c-0.35-0.224-0.452-0.69-0.226-1.038
					c0.228-0.352,0.696-0.448,1.044-0.226l226.42,145.46c0.35,0.224,0.452,0.69,0.226,1.04
					C1943.086,1360.392,1942.844,1360.514,1942.596,1360.514z"/>
			</g>
			<g style="opacity:0.5364;">
				<path d="M1716.176,1215.054c-0.396,0-0.728-0.308-0.752-0.704l-4.14-66.53c-0.026-0.416,0.29-0.772,0.704-0.796
					c0.404-0.066,0.778,0.288,0.802,0.702l4.14,66.53c0.026,0.414-0.29,0.77-0.706,0.796
					C1716.208,1215.054,1716.192,1215.054,1716.176,1215.054z"/>
			</g>
			<g style="opacity:0.6321;">
				<path d="M1621.994,1020.206c-0.11,0-0.22-0.024-0.326-0.076l-201.302-95.75c-0.376-0.178-0.536-0.626-0.354-1.002
					c0.178-0.374,0.628-0.53,1.006-0.352l201.302,95.75c0.376,0.178,0.536,0.626,0.354,1.002
					C1622.546,1020.046,1622.276,1020.206,1621.994,1020.206z"/>
			</g>
			<g style="opacity:0.7682;">
				<path d="M1420.692,924.454c-0.03,0-0.062-0.002-0.092-0.006l-205.114-24.75c-0.416-0.048-0.71-0.424-0.66-0.834
					c0.05-0.412,0.44-0.706,0.84-0.656l205.116,24.748c0.414,0.05,0.71,0.426,0.658,0.836
					C1421.396,924.174,1421.068,924.454,1420.692,924.454z"/>
			</g>
			<g style="opacity:0.7101;">
				<path d="M1942.596,1360.514c-0.044,0-0.09-0.004-0.136-0.012c-0.41-0.076-0.682-0.468-0.606-0.876l6.464-35.07
					c0.076-0.408,0.478-0.672,0.88-0.604c0.41,0.076,0.682,0.468,0.606,0.874l-6.464,35.072
					C1943.274,1360.26,1942.954,1360.514,1942.596,1360.514z"/>
			</g>
			<g style="opacity:0.9017;">
				<path d="M2400,1502.836l-34.622,64.09c-0.198,0.366-0.06,0.822,0.306,1.018c0.114,0.06,0.236,0.09,0.358,0.09
					c0.268,0,0.53-0.144,0.666-0.396L2400,1506.01V1502.836z"/>
			</g>
			<g style="opacity:0.827;">
				<path d="M2366.042,1568.034c-0.016,0-0.028,0-0.044-0.002l-279.042-16.98c-0.418-0.026-0.734-0.382-0.708-0.794
					c0.024-0.416,0.372-0.78,0.798-0.706l279.042,16.98c0.416,0.026,0.734,0.382,0.708,0.794
					C2366.772,1567.726,2366.44,1568.034,2366.042,1568.034z"/>
			</g>
			<g style="opacity:0.3393;">
				<path d="M1621.994,1020.206c-0.07,0-0.144-0.01-0.216-0.032l-406.418-120.5c-0.4-0.12-0.628-0.536-0.508-0.936
					c0.12-0.396,0.53-0.622,0.94-0.506l406.418,120.5c0.4,0.12,0.628,0.538,0.508,0.936
					C1622.62,1019.994,1622.32,1020.206,1621.994,1020.206z"/>
			</g>
			<g>
				<path d="M1712.036,1148.524c-0.238,0-0.472-0.11-0.62-0.32l-90.04-128.32c-0.238-0.34-0.156-0.808,0.186-1.048
					c0.342-0.238,0.814-0.154,1.052,0.186l90.042,128.32c0.238,0.34,0.154,0.808-0.188,1.048
					C1712.336,1148.482,1712.186,1148.524,1712.036,1148.524z"/>
			</g>
			<g style="opacity:0.7845;">
				<path d="M1949.062,1325.442c-0.158,0-0.316-0.048-0.452-0.15l-237.026-176.918c-0.334-0.248-0.402-0.72-0.152-1.052
					c0.248-0.334,0.724-0.402,1.056-0.15l237.026,176.918c0.334,0.248,0.4,0.72,0.152,1.052
					C1949.518,1325.34,1949.29,1325.442,1949.062,1325.442z"/>
			</g>
			<g style="opacity:0.9207;">
				<path d="M2087,1551.054c-0.252,0-0.502-0.13-0.644-0.36l-137.94-225.612c-0.216-0.354-0.104-0.818,0.252-1.032
					c0.358-0.218,0.822-0.104,1.038,0.25l137.94,225.61c0.216,0.354,0.104,0.818-0.252,1.034
					C2087.27,1551.018,2087.134,1551.054,2087,1551.054z"/>
			</g>
			<g>
				<path d="M1730.134,1060.538c-0.09,0-0.178-0.016-0.266-0.046l-108.14-40.334c-0.388-0.146-0.586-0.58-0.442-0.968
					c0.148-0.388,0.58-0.58,0.974-0.442l108.138,40.334c0.39,0.146,0.588,0.58,0.444,0.968
					C1730.728,1060.352,1730.438,1060.538,1730.134,1060.538z"/>
			</g>
			<g>
				<path d="M1712.036,1148.524c-0.05,0-0.1-0.004-0.152-0.014c-0.408-0.084-0.672-0.48-0.588-0.888l18.098-87.986
					c0.082-0.408,0.476-0.684,0.89-0.586c0.41,0.082,0.674,0.48,0.588,0.888l-18.096,87.986
					C1712.702,1148.28,1712.388,1148.524,1712.036,1148.524z"/>
			</g>
			<g>
				<path d="M1621.994,1020.206c-0.19,0-0.38-0.072-0.526-0.214l-33.052-32.106c-0.3-0.288-0.306-0.764-0.014-1.062
					c0.29-0.296,0.768-0.304,1.066-0.014l33.054,32.106c0.298,0.288,0.304,0.764,0.014,1.062
					C1622.388,1020.128,1622.192,1020.206,1621.994,1020.206z"/>
			</g>
			<g style="opacity:0.2317;">
				<path d="M1588.942,988.1c-0.056,0-0.116-0.006-0.174-0.02L1215.4,899.686c-0.404-0.096-0.656-0.504-0.56-0.908
					c0.096-0.4,0.5-0.656,0.91-0.558l373.368,88.396c0.404,0.096,0.656,0.504,0.56,0.906
					C1589.594,987.868,1589.284,988.1,1588.942,988.1z"/>
			</g>
			<g style="opacity:0.9452;">
				<path d="M1712.036,1148.524c-0.226,0-0.452-0.102-0.6-0.294l-123.094-160.426c-0.254-0.328-0.19-0.8,0.142-1.052
					c0.328-0.25,0.806-0.19,1.058,0.14l123.094,160.424c0.254,0.33,0.19,0.802-0.142,1.054
					C1712.358,1148.474,1712.198,1148.524,1712.036,1148.524z"/>
			</g>
			<g>
				<path d="M1949.062,1325.442c-0.126,0-0.254-0.03-0.37-0.096l-53.956-30.21c-0.364-0.204-0.492-0.662-0.288-1.024
					c0.206-0.364,0.67-0.488,1.028-0.288l53.956,30.212c0.362,0.202,0.492,0.662,0.288,1.024
					C1949.58,1325.306,1949.326,1325.442,1949.062,1325.442z"/>
			</g>
			<g>
				<path d="M1730.134,1060.538c-0.118,0-0.236-0.028-0.346-0.084l-141.192-72.438c-0.37-0.19-0.516-0.642-0.324-1.012
					c0.19-0.37,0.65-0.51,1.016-0.324l141.192,72.438c0.37,0.19,0.514,0.644,0.324,1.014
					C1730.67,1060.39,1730.406,1060.538,1730.134,1060.538z"/>
			</g>
			<g style="opacity:0.936;">
				<path d="M1730.134,1060.538c-0.192,0-0.382-0.07-0.53-0.214c-0.296-0.29-0.302-0.766-0.01-1.064l56.094-57.038
					c0.29-0.292,0.768-0.304,1.066-0.01c0.298,0.29,0.304,0.766,0.01,1.062l-56.092,57.04
					C1730.524,1060.462,1730.33,1060.538,1730.134,1060.538z"/>
			</g>
			<g style="opacity:0.8466;">
				<path d="M1640.946,1145.572c-0.316,0-0.612-0.2-0.716-0.516l-52.006-157.472c-0.13-0.396,0.086-0.82,0.482-0.95
					c0.392-0.13,0.822,0.082,0.954,0.48l52.004,157.472c0.13,0.396-0.086,0.82-0.482,0.95
					C1641.104,1145.56,1641.026,1145.572,1640.946,1145.572z"/>
			</g>
			<g style="opacity:0.5906;">
				<path d="M1895.106,1295.232c-0.306,0-0.594-0.188-0.708-0.49l-108.88-291.732c-0.146-0.39,0.054-0.822,0.444-0.966
					c0.394-0.14,0.826,0.056,0.972,0.442l108.88,291.732c0.146,0.388-0.054,0.822-0.444,0.966
					C1895.284,1295.216,1895.192,1295.232,1895.106,1295.232z"/>
			</g>
			<g style="opacity:0.6219;">
				<path d="M1895.106,1295.232c-0.132,0-0.264-0.034-0.384-0.104l-254.158-149.66c-0.36-0.21-0.478-0.672-0.268-1.03
					c0.214-0.362,0.68-0.474,1.034-0.266l254.16,149.66c0.36,0.21,0.478,0.672,0.268,1.03
					C1895.616,1295.1,1895.364,1295.232,1895.106,1295.232z"/>
			</g>
			<g>
				<path d="M1640.946,1145.572c-0.194,0-0.39-0.074-0.538-0.224c-0.292-0.296-0.286-0.772,0.01-1.064l145.28-142.072
					c0.298-0.288,0.774-0.288,1.066,0.01c0.294,0.296,0.288,0.77-0.01,1.062l-145.278,142.074
					C1641.328,1145.5,1641.138,1145.572,1640.946,1145.572z"/>
			</g>
			<g>
				<path d="M2292.894,1695.208c-0.254,0-0.506-0.132-0.648-0.366c-0.212-0.356-0.096-0.818,0.262-1.032l39.672-23.608
					c0.36-0.214,0.822-0.096,1.036,0.26c0.212,0.356,0.096,0.818-0.262,1.032l-39.672,23.608
					C2293.16,1695.172,2293.026,1695.208,2292.894,1695.208z"/>
			</g>
			<g style="opacity:0.4438;">
				<path d="M2332.568,1671.6c-0.088,0-0.182-0.016-0.27-0.05l-348.046-131.948c-0.39-0.15-0.584-0.582-0.438-0.972
					c0.148-0.386,0.586-0.582,0.976-0.434l348.046,131.948c0.39,0.15,0.584,0.582,0.438,0.972
					C2333.16,1671.416,2332.872,1671.6,2332.568,1671.6z"/>
			</g>
			<g style="opacity:0.8859;">
				<path d="M1368.548,1175.512c-0.38,0-0.706-0.284-0.75-0.67c-0.046-0.412,0.254-0.782,0.668-0.83l272.398-29.94
					c0.414-0.02,0.786,0.254,0.834,0.666c0.046,0.414-0.254,0.784-0.668,0.83l-272.398,29.94
					C1368.604,1175.51,1368.576,1175.512,1368.548,1175.512z"/>
			</g>
			<g style="opacity:0.3806;">
				<path d="M2400,1614.706l-67.912,55.56c-0.322,0.264-0.368,0.738-0.104,1.06c0.148,0.18,0.366,0.274,0.584,0.274
					c0.168,0,0.338-0.058,0.48-0.172l66.952-54.774V1614.706z"/>
			</g>
			<g style="opacity:0.2582;">
				<path d="M1731.72,1470.182c-0.17,0-0.336-0.054-0.478-0.168l-363.17-294.67c-0.324-0.262-0.372-0.736-0.11-1.06
					c0.268-0.322,0.742-0.368,1.064-0.108l363.172,294.67c0.322,0.264,0.372,0.736,0.108,1.06
					C1732.156,1470.088,1731.938,1470.182,1731.72,1470.182z"/>
			</g>
			<g style="opacity:0.7011;">
				<path d="M2292.894,1695.208c-0.116,0-0.232-0.026-0.342-0.08l-308.374-155.558c-0.372-0.188-0.518-0.64-0.332-1.012
					c0.19-0.37,0.646-0.518,1.016-0.332l308.374,155.558c0.372,0.188,0.52,0.64,0.334,1.012
					C2293.436,1695.056,2293.17,1695.208,2292.894,1695.208z"/>
			</g>
			<g>
				<path d="M1984.52,1539.65c-0.066,0-0.134-0.008-0.2-0.028l-252.8-69.468c-0.404-0.11-0.64-0.524-0.528-0.924
					c0.112-0.398,0.526-0.642,0.928-0.524l252.802,69.468c0.402,0.11,0.638,0.524,0.526,0.924
					C1985.156,1539.43,1984.852,1539.65,1984.52,1539.65z"/>
			</g>
			<g style="opacity:0.4284;">
				<path d="M2400,1608.808l-107.576,85.058c-0.326,0.258-0.38,0.732-0.12,1.058c0.148,0.186,0.368,0.284,0.59,0.284
					c0.166,0,0.332-0.054,0.47-0.164L2400,1610.73V1608.808z"/>
			</g>
			<g style="opacity:0.5087;">
				<path d="M2369.306,1700h2.47l-38.748-29.748c-0.326-0.254-0.802-0.194-1.058,0.138c-0.256,0.326-0.192,0.8,0.138,1.052
					L2369.306,1700z"/>
			</g>
			<g style="opacity:0.9237;">
				<path d="M2292.608,1695.15l11.81,4.85h3.96l-15.196-6.24c-0.384-0.156-0.826,0.024-0.986,0.41
					C2292.038,1694.554,2292.222,1694.992,2292.608,1695.15z"/>
			</g>
			<g style="opacity:0.6255;">
				<path d="M1160.698,1404.07c-0.182,0-0.362-0.066-0.506-0.194c-0.31-0.28-0.334-0.756-0.054-1.064l207.85-228.556
					c0.28-0.306,0.756-0.332,1.068-0.054c0.308,0.28,0.332,0.756,0.054,1.064l-207.854,228.556
					C1161.108,1403.986,1160.902,1404.07,1160.698,1404.07z"/>
			</g>
			<g style="opacity:0.3659;">
				<path d="M1366.4,1419.522c-0.002,0-0.004,0-0.006,0c-0.416-0.004-0.754-0.342-0.75-0.758l2.15-244.01
					c0.004-0.412,0.34-0.746,0.754-0.746c0.002,0,0.004,0,0.006,0c0.418,0.004,0.754,0.344,0.75,0.758l-2.15,244.01
					C1367.15,1419.188,1366.814,1419.522,1366.4,1419.522z"/>
			</g>
			<g>
				<path d="M1366.4,1419.522c-0.018,0-0.038,0-0.058-0.002l-205.702-15.452c-0.416-0.032-0.728-0.392-0.696-0.808
					c0.032-0.414,0.412-0.738,0.81-0.692l205.702,15.452c0.416,0.032,0.728,0.392,0.696,0.806
					C1367.124,1419.222,1366.792,1419.522,1366.4,1419.522z"/>
			</g>
			<g style="opacity:0.3323;">
				<path d="M2130.256,1694.086L2159.6,1700h7.604l-36.65-7.386c-0.416-0.098-0.806,0.18-0.888,0.586
					C2129.584,1693.608,2129.846,1694.004,2130.256,1694.086z"/>
			</g>
			<g style="opacity:0.5966;">
				<path d="M1661.47,1615.93c-0.146,0-0.29-0.042-0.418-0.128l-295.072-196.408c-0.348-0.23-0.44-0.696-0.208-1.042
					c0.234-0.346,0.706-0.436,1.046-0.206l295.072,196.406c0.348,0.232,0.44,0.698,0.208,1.042
					C1661.952,1615.812,1661.714,1615.93,1661.47,1615.93z"/>
			</g>
			<g style="opacity:0.6588;">
				<path d="M2136.672,1700h2.25l-8.012-7.208c-0.308-0.278-0.786-0.256-1.066,0.054c-0.278,0.308-0.254,0.784,0.056,1.062
					L2136.672,1700z"/>
			</g>
			<g style="opacity:0.459;">
				<path d="M1324.304,1645.232c-0.044,0-0.09-0.004-0.136-0.012c-0.412-0.076-0.682-0.47-0.606-0.876l42.094-225.712
					c0.08-0.406,0.464-0.67,0.882-0.602c0.41,0.076,0.68,0.47,0.606,0.876l-42.096,225.712
					C1324.98,1644.98,1324.662,1645.232,1324.304,1645.232z"/>
			</g>
			<g style="opacity:0.6226;">
				<path d="M1324.304,1645.232c-0.386,0-0.716-0.296-0.752-0.686c-0.036-0.414,0.27-0.778,0.688-0.816l337.166-29.302
					c0.42-0.036,0.78,0.272,0.818,0.684c0.034,0.414-0.272,0.778-0.688,0.816l-337.166,29.302
					C1324.348,1645.232,1324.326,1645.232,1324.304,1645.232z"/>
			</g>
			<g style="opacity:0.4907;">
				<path d="M1460.582,1700l201.182-84.13c0.382-0.16,0.564-0.6,0.402-0.984c-0.16-0.384-0.604-0.556-0.988-0.402L1456.68,1700
					H1460.582z"/>
			</g>
			<g style="opacity:0.9022;">
				<path d="M2129.992,1693.978l9.232,6.022h2.752l-11.158-7.278c-0.342-0.232-0.816-0.136-1.044,0.216
					C2129.546,1693.284,2129.642,1693.75,2129.992,1693.978z"/>
			</g>
			<g style="opacity:0.6783;">
				<path d="M2129.838,1700l1.308-6.504c0.082-0.406-0.184-0.802-0.594-0.884c-0.398-0.078-0.804,0.184-0.888,0.59l-1.368,6.798
					H2129.838z"/>
			</g>
			<g style="opacity:0.3171;">
				<path d="M1724.008,1700h1.884l-63.816-85.27c-0.248-0.338-0.726-0.4-1.056-0.156c-0.334,0.25-0.404,0.718-0.156,1.052
					L1724.008,1700z"/>
			</g>
			<g>
				<path d="M1321.83,1700l3.228-55.476c0.026-0.416-0.294-0.77-0.71-0.794c-0.406-0.066-0.774,0.294-0.796,0.708L1320.32,1700
					H1321.83z"/>
			</g>
			<g style="opacity:0.2545;">
				<path d="M1473.358,1693.326c-0.078,0-0.156-0.012-0.234-0.038l-149.052-48.092c-0.396-0.128-0.614-0.552-0.484-0.946
					c0.126-0.396,0.558-0.612,0.948-0.484l149.054,48.094c0.396,0.128,0.614,0.552,0.484,0.946
					C1473.972,1693.124,1473.676,1693.326,1473.358,1693.326z"/>
			</g>
			<g style="opacity:0.2948;">
				<path d="M1457.856,1700l15.798-6.734c0.384-0.164,0.56-0.606,0.398-0.988c-0.166-0.384-0.616-0.558-0.992-0.394l-19.04,8.116
					H1457.856z"/>
			</g>
			<g style="opacity:0.6965;">
				<path d="M1473.188,1693.306l29.11,6.694h6.706l-35.478-8.158c-0.418-0.104-0.812,0.158-0.904,0.564
					C1472.528,1692.81,1472.78,1693.212,1473.188,1693.306z"/>
			</g>
			<g style="opacity:0.2607;">
				<path d="M1473.304,1693.324l96.128,6.676h21.698l-117.72-8.176c-0.418-0.032-0.776,0.284-0.806,0.698
					C1472.574,1692.936,1472.89,1693.294,1473.304,1693.324z"/>
			</g>
			<g>
				<path d="M1473.358,1693.326c-0.378,0-0.702-0.28-0.75-0.662l-6.654-54.434c-0.05-0.412,0.244-0.788,0.658-0.836
					c0.398-0.062,0.79,0.244,0.84,0.656l6.654,54.434c0.052,0.412-0.244,0.788-0.658,0.836
					C1473.418,1693.324,1473.386,1693.326,1473.358,1693.326z"/>
			</g>
			<g style="opacity:0.2571;">
				<path d="M1466.574,1638.88L1819.34,1700h8.8l-361.306-62.6c-0.43-0.08-0.806,0.206-0.874,0.61
					C1465.888,1638.42,1466.162,1638.81,1466.574,1638.88z"/>
			</g>
			<g style="opacity:0.871;">
				<polygon points="2385.82,1700 2400,1685.53 2400,1683.378 2383.71,1700 				"/>
			</g>
			<g style="opacity:0.7388;">
				<polygon points="2391.878,1700 2400,1689.85 2400,1687.44 2389.95,1700 				"/>
			</g>
			<g style="opacity:0.1924;">
				<path d="M1406.75,1700l60.492-61.334c0.292-0.296,0.288-0.772-0.01-1.062c-0.296-0.288-0.774-0.288-1.068,0.008l-61.53,62.388
					H1406.75z"/>
			</g>
			<g>
				<path d="M1318.724,1700l6.484-138.488c0.016-0.416-0.304-0.768-0.72-0.786c-0.404,0.008-0.772,0.3-0.79,0.716L1317.21,1700
					H1318.724z"/>
			</g>
			<g style="opacity:0.1775;">
				<path d="M1324.146,1562.164L1635.894,1700h3.722l-314.858-139.21c-0.382-0.164-0.824,0.002-0.996,0.382
					C1323.592,1561.552,1323.764,1561.996,1324.146,1562.164z"/>
			</g>
			<path d="M1437.086,891.092c2.44,0.416,4.078,2.724,3.66,5.152c-0.418,2.43-2.734,4.062-5.174,3.644
				c-2.44-0.416-4.078-2.722-3.66-5.152C1432.33,892.308,1434.646,890.676,1437.086,891.092z"/>
			<path d="M2394.764,1310.324c2.952,0.504,4.934,3.294,4.428,6.234c-0.506,2.938-3.308,4.912-6.26,4.408
				c-2.952-0.504-4.934-3.294-4.428-6.232C2389.01,1311.794,2391.812,1309.82,2394.764,1310.324z"/>
			<path d="M2201.442,1296.37c2.688,0.458,4.494,3,4.034,5.676c-0.462,2.676-3.014,4.474-5.702,4.016
				c-2.688-0.46-4.494-3-4.032-5.678C2196.202,1297.708,2198.754,1295.91,2201.442,1296.37z"/>
			<path d="M1561.602,830.46c2.33,0.396,3.894,2.6,3.496,4.918c-0.4,2.32-2.612,3.878-4.942,3.48
				c-2.328-0.396-3.894-2.6-3.494-4.918C1557.062,831.62,1559.274,830.062,1561.602,830.46z"/>
			<path d="M2099.276,1077.796c3.75,0.642,6.27,4.188,5.626,7.922c-0.642,3.736-4.204,6.244-7.954,5.604
				c-3.752-0.64-6.272-4.188-5.628-7.922C2091.962,1079.666,2095.524,1077.156,2099.276,1077.796z"/>
			<path d="M2200.102,1485.322c2.456,0.42,4.104,2.74,3.684,5.184c-0.422,2.446-2.752,4.086-5.208,3.668
				c-2.454-0.418-4.104-2.74-3.682-5.184C2195.316,1486.546,2197.648,1484.904,2200.102,1485.322z"/>
			<path d="M1806.076,1168.046c3.948,0.674,6.6,4.408,5.922,8.338c-0.676,3.932-4.426,6.572-8.374,5.898
				c-3.948-0.674-6.6-4.406-5.922-8.338C1798.378,1170.014,1802.128,1167.374,1806.076,1168.046z"/>
			<path d="M1950.014,1438.208c4.108,0.702,6.866,4.586,6.162,8.676c-0.704,4.09-4.604,6.838-8.712,6.136
				c-4.108-0.7-6.868-4.584-6.164-8.674C1942.004,1440.256,1945.906,1437.508,1950.014,1438.208z"/>
			<path d="M1337.536,813.2c3.754,0.642,6.278,4.192,5.634,7.932c-0.644,3.738-4.21,6.25-7.966,5.61
				c-3.756-0.642-6.278-4.192-5.634-7.932C1330.214,815.072,1333.78,812.56,1337.536,813.2z"/>
			<path d="M1458.594,788.618c4.554,0.778,7.614,5.084,6.832,9.618c-0.78,4.536-5.106,7.582-9.66,6.804
				c-4.554-0.778-7.614-5.084-6.832-9.618C1449.714,790.888,1454.04,787.842,1458.594,788.618z"/>
			<path d="M2065.968,1563.062c3.326,0.568,5.562,3.712,4.99,7.026c-0.57,3.312-3.728,5.536-7.056,4.968
				c-3.326-0.568-5.56-3.712-4.99-7.024C2059.482,1564.718,2062.64,1562.494,2065.968,1563.062z"/>
			<path d="M2105.844,1480.576c5.04,0.86,8.426,5.626,7.562,10.642c-0.864,5.018-5.65,8.388-10.69,7.528
				c-5.038-0.86-8.424-5.624-7.56-10.642C2096.02,1483.086,2100.806,1479.716,2105.844,1480.576z"/>
			<path d="M1772.88,1470.832c3.988,0.68,6.668,4.452,5.984,8.422c-0.684,3.972-4.47,6.64-8.458,5.958
				c-3.99-0.68-6.668-4.45-5.984-8.422C1765.104,1472.82,1768.892,1470.152,1772.88,1470.832z"/>
			<path d="M1717.668,1205.64c4.804,0.82,8.032,5.364,7.21,10.148c-0.824,4.784-5.388,7.998-10.194,7.178
				c-4.804-0.82-8.032-5.362-7.21-10.148C1708.298,1208.034,1712.862,1204.82,1717.668,1205.64z"/>
			<path d="M1421.966,916.292c4.112,0.702,6.874,4.588,6.168,8.682c-0.704,4.092-4.608,6.842-8.718,6.14
				c-4.112-0.702-6.874-4.588-6.168-8.682C1413.952,918.34,1417.856,915.59,1421.966,916.292z"/>
			<path d="M1943.852,1352.468c4.046,0.692,6.764,4.516,6.07,8.544c-0.694,4.028-4.534,6.734-8.58,6.044
				c-4.046-0.69-6.764-4.516-6.07-8.544C1935.966,1354.484,1939.806,1351.778,1943.852,1352.468z"/>
			<path d="M2366.758,1563.13c2.304,0.392,3.852,2.57,3.456,4.864c-0.394,2.294-2.582,3.834-4.886,3.442
				c-2.302-0.394-3.85-2.572-3.456-4.866C2362.268,1564.276,2364.454,1562.736,2366.758,1563.13z"/>
			<path d="M1622.762,1014.988c2.478,0.422,4.142,2.764,3.716,5.23c-0.424,2.466-2.776,4.122-5.252,3.7
				c-2.478-0.422-4.14-2.764-3.716-5.23C1617.934,1016.222,1620.286,1014.564,1622.762,1014.988z"/>
			<path d="M1217.318,888.832c5.614,0.958,9.386,6.266,8.424,11.856c-0.964,5.59-6.294,9.346-11.91,8.388
				c-5.614-0.96-9.386-6.268-8.422-11.858C1206.372,891.628,1211.704,887.872,1217.318,888.832z"/>
			<path d="M1713.72,1137.982c5.432,0.928,9.08,6.062,8.148,11.47c-0.93,5.406-6.088,9.038-11.518,8.112
				c-5.43-0.928-9.078-6.062-8.148-11.47C1703.134,1140.688,1708.29,1137.056,1713.72,1137.982z"/>
			<path d="M2087.816,1545.572c2.624,0.448,4.386,2.928,3.936,5.542c-0.45,2.612-2.942,4.368-5.566,3.92s-4.386-2.93-3.936-5.542
				C2082.7,1546.878,2085.192,1545.124,2087.816,1545.572z"/>
			<path d="M1949.962,1319.46c2.902,0.494,4.852,3.238,4.354,6.128c-0.498,2.89-3.254,4.83-6.156,4.336
				c-2.902-0.496-4.85-3.24-4.354-6.13C1944.304,1320.906,1947.06,1318.964,1949.962,1319.46z"/>
			<path d="M1731.668,1050.872c4.944,0.844,8.266,5.52,7.418,10.442c-0.848,4.924-5.542,8.232-10.488,7.388
				c-4.944-0.844-8.266-5.52-7.418-10.442C1722.028,1053.336,1726.724,1050.03,1731.668,1050.872z"/>
			<path d="M1590.714,977.058c5.706,0.974,9.54,6.372,8.562,12.054c-0.978,5.682-6.398,9.5-12.106,8.526
				c-5.706-0.974-9.54-6.37-8.562-12.054C1579.586,979.902,1585.006,976.084,1590.714,977.058z"/>
			<path d="M1896.468,1286.574c4.384,0.748,7.33,4.894,6.578,9.26c-0.752,4.368-4.916,7.3-9.3,6.552
				c-4.386-0.748-7.332-4.896-6.58-9.262C1887.918,1288.758,1892.082,1285.826,1896.468,1286.574z"/>
			<path d="M2333.532,1665.244c3.108,0.53,5.194,3.468,4.662,6.564c-0.532,3.094-3.484,5.172-6.592,4.642
				c-3.106-0.532-5.194-3.47-4.662-6.564C2327.474,1666.792,2330.424,1664.714,2333.532,1665.244z"/>
			<path d="M1787.112,997.598c2.856,0.486,4.776,3.188,4.286,6.032s-3.202,4.756-6.06,4.268c-2.856-0.488-4.776-3.188-4.286-6.034
				C1781.542,999.02,1784.256,997.11,1787.112,997.598z"/>
			<path d="M1642.294,1136.992c4.342,0.742,7.258,4.848,6.514,9.17c-0.744,4.324-4.866,7.228-9.208,6.486
				c-4.342-0.74-7.26-4.846-6.516-9.17C1633.83,1139.156,1637.952,1136.252,1642.294,1136.992z"/>
			<path d="M2290.5,1700h4.81c1.816-0.786,3.214-2.434,3.574-4.522c0.566-3.294-1.656-6.42-4.964-6.984
				c-3.306-0.566-6.448,1.646-7.014,4.94C2286.422,1696.246,2287.978,1698.922,2290.5,1700z"/>
			<path d="M1732.634,1464.118c2.946,0.502,4.926,3.288,4.42,6.222c-0.504,2.934-3.302,4.904-6.248,4.402
				c-2.948-0.504-4.926-3.29-4.422-6.224C1726.89,1465.586,1729.688,1463.614,1732.634,1464.118z"/>
			<path d="M1369.484,1169.328c3.014,0.514,5.038,3.364,4.52,6.364c-0.516,3-3.378,5.016-6.39,4.502
				c-3.014-0.514-5.038-3.364-4.522-6.364C1363.61,1170.83,1366.47,1168.814,1369.484,1169.328z"/>
			<path d="M1986.404,1527.958c6.068,1.034,10.146,6.772,9.104,12.816c-1.04,6.042-6.802,10.1-12.87,9.064
				c-6.07-1.034-10.146-6.772-9.106-12.816C1974.572,1530.98,1980.336,1526.922,1986.404,1527.958z"/>
			<path d="M1161.54,1398.422c2.716,0.464,4.54,3.032,4.074,5.736c-0.464,2.704-3.044,4.52-5.76,4.056
				c-2.716-0.464-4.54-3.03-4.074-5.736C1156.246,1399.774,1158.824,1397.958,1161.54,1398.422z"/>
			<path d="M1367.31,1413.486c2.93,0.5,4.9,3.272,4.398,6.19c-0.504,2.918-3.288,4.88-6.218,4.38
				c-2.932-0.502-4.9-3.272-4.398-6.192C1361.594,1414.946,1364.378,1412.986,1367.31,1413.486z"/>
			<path d="M1662.224,1610.796c2.43,0.414,4.064,2.712,3.646,5.132c-0.416,2.42-2.724,4.046-5.154,3.632
				c-2.432-0.416-4.064-2.714-3.648-5.134C1657.486,1612.006,1659.794,1610.382,1662.224,1610.796z"/>
			<path d="M2131.458,1687.232c3.392,0.58,5.672,3.788,5.09,7.166c-0.582,3.378-3.804,5.648-7.196,5.068
				c-3.392-0.578-5.672-3.786-5.09-7.164C2124.844,1688.922,2128.066,1686.654,2131.458,1687.232z"/>
			<path d="M1325.672,1636.532c4.41,0.752,7.37,4.92,6.614,9.31c-0.754,4.39-4.942,7.338-9.35,6.586
				c-4.408-0.754-7.368-4.922-6.614-9.31C1317.078,1638.728,1321.264,1635.78,1325.672,1636.532z"/>
			<path d="M1482.116,1700c1.3-1.516,2.228-3.382,2.592-5.49c1.074-6.24-3.138-12.168-9.406-13.238
				c-6.268-1.068-12.22,3.124-13.294,9.364c-0.6,3.484,0.448,6.866,2.58,9.364H1482.116z"/>
			<path d="M1467.544,1633.254c2.712,0.462,4.532,3.024,4.068,5.724c-0.466,2.698-3.04,4.51-5.75,4.048s-4.53-3.024-4.066-5.724
				C1462.26,1634.604,1464.834,1632.79,1467.544,1633.254z"/>
			<path d="M1325.706,1554.196c4.038,0.69,6.75,4.508,6.058,8.528c-0.692,4.022-4.526,6.722-8.566,6.034
				c-4.038-0.69-6.75-4.508-6.058-8.528C1317.832,1556.208,1321.666,1553.508,1325.706,1554.196z"/>
		</g>
	</g>
</g>
</svg>
